%TF.GenerationSoftware,KiCad,Pcbnew,9.0.6*%
%TF.CreationDate,2025-12-29T20:46:53-03:00*%
%TF.ProjectId,122025,31323230-3235-42e6-9b69-6361645f7063,A*%
%TF.SameCoordinates,Original*%
%TF.FileFunction,Soldermask,Top*%
%TF.FilePolarity,Negative*%
%FSLAX46Y46*%
G04 Gerber Fmt 4.6, Leading zero omitted, Abs format (unit mm)*
G04 Created by KiCad (PCBNEW 9.0.6) date 2025-12-29 20:46:53*
%MOMM*%
%LPD*%
G01*
G04 APERTURE LIST*
G04 Aperture macros list*
%AMRoundRect*
0 Rectangle with rounded corners*
0 $1 Rounding radius*
0 $2 $3 $4 $5 $6 $7 $8 $9 X,Y pos of 4 corners*
0 Add a 4 corners polygon primitive as box body*
4,1,4,$2,$3,$4,$5,$6,$7,$8,$9,$2,$3,0*
0 Add four circle primitives for the rounded corners*
1,1,$1+$1,$2,$3*
1,1,$1+$1,$4,$5*
1,1,$1+$1,$6,$7*
1,1,$1+$1,$8,$9*
0 Add four rect primitives between the rounded corners*
20,1,$1+$1,$2,$3,$4,$5,0*
20,1,$1+$1,$4,$5,$6,$7,0*
20,1,$1+$1,$6,$7,$8,$9,0*
20,1,$1+$1,$8,$9,$2,$3,0*%
G04 Aperture macros list end*
%ADD10R,1.800000X1.800000*%
%ADD11C,1.800000*%
%ADD12O,2.720000X3.240000*%
%ADD13R,1.500000X1.500000*%
%ADD14C,1.600000*%
%ADD15RoundRect,0.249999X-0.850001X0.850001X-0.850001X-0.850001X0.850001X-0.850001X0.850001X0.850001X0*%
%ADD16C,2.200000*%
%ADD17R,1.350000X1.350000*%
%ADD18R,1.050000X1.500000*%
%ADD19O,1.050000X1.500000*%
%ADD20RoundRect,0.250000X-0.550000X-0.550000X0.550000X-0.550000X0.550000X0.550000X-0.550000X0.550000X0*%
%ADD21RoundRect,0.250000X0.550000X0.550000X-0.550000X0.550000X-0.550000X-0.550000X0.550000X-0.550000X0*%
%ADD22RoundRect,0.250000X-0.550000X0.550000X-0.550000X-0.550000X0.550000X-0.550000X0.550000X0.550000X0*%
%ADD23RoundRect,0.250000X0.550000X-0.550000X0.550000X0.550000X-0.550000X0.550000X-0.550000X-0.550000X0*%
G04 APERTURE END LIST*
D10*
%TO.C,D4*%
X49230000Y-18500000D03*
D11*
X51770000Y-18500000D03*
%TD*%
D12*
%TO.C,RV3*%
X45700000Y-43225000D03*
X55300000Y-43225000D03*
D10*
X48000000Y-50725000D03*
D11*
X50500000Y-50725000D03*
X53000000Y-50725000D03*
%TD*%
D13*
%TO.C,TP5*%
X16000000Y-59000000D03*
%TD*%
D14*
%TO.C,C9*%
X48500000Y-29500000D03*
X43500000Y-29500000D03*
%TD*%
D15*
%TO.C,D3*%
X41500000Y-58920000D03*
D16*
X41500000Y-69080000D03*
%TD*%
D17*
%TO.C,J5*%
X48500000Y-68500000D03*
%TD*%
D13*
%TO.C,TP4*%
X31000000Y-69000000D03*
%TD*%
D12*
%TO.C,RV1*%
X25700000Y-27225000D03*
X35300000Y-27225000D03*
D10*
X28000000Y-34725000D03*
D11*
X30500000Y-34725000D03*
X33000000Y-34725000D03*
%TD*%
D14*
%TO.C,R4*%
X79190000Y-22000000D03*
X86810000Y-22000000D03*
%TD*%
D17*
%TO.C,J2*%
X15500000Y-67500000D03*
%TD*%
D14*
%TO.C,R11*%
X69500000Y-40000000D03*
X61880000Y-40000000D03*
%TD*%
%TO.C,R19*%
X67350000Y-18500000D03*
X54650000Y-18500000D03*
%TD*%
D18*
%TO.C,Q1*%
X69120000Y-58120000D03*
D19*
X70390000Y-58120000D03*
X71660000Y-58120000D03*
%TD*%
D20*
%TO.C,U1*%
X27190000Y-41690000D03*
D14*
X27190000Y-44230000D03*
X27190000Y-46770000D03*
X27190000Y-49310000D03*
X34810000Y-49310000D03*
X34810000Y-46770000D03*
X34810000Y-44230000D03*
X34810000Y-41690000D03*
%TD*%
%TO.C,R12*%
X52880000Y-29500000D03*
X60500000Y-29500000D03*
%TD*%
D21*
%TO.C,C14*%
X27705113Y-54000000D03*
D14*
X25205113Y-54000000D03*
%TD*%
D17*
%TO.C,J1*%
X82500000Y-68000000D03*
%TD*%
D14*
%TO.C,R8*%
X85120000Y-47000000D03*
X77500000Y-47000000D03*
%TD*%
%TO.C,C3*%
X69160000Y-64120000D03*
X74160000Y-64120000D03*
%TD*%
%TO.C,C5*%
X85000000Y-39000000D03*
X85000000Y-34000000D03*
%TD*%
%TO.C,C7*%
X30000000Y-59000000D03*
X35000000Y-59000000D03*
%TD*%
%TO.C,R7*%
X78190000Y-27500000D03*
X85810000Y-27500000D03*
%TD*%
%TO.C,R10*%
X81000000Y-32690000D03*
X81000000Y-40310000D03*
%TD*%
D18*
%TO.C,Q2*%
X70390000Y-51480000D03*
D19*
X71660000Y-51480000D03*
X72930000Y-51480000D03*
%TD*%
D13*
%TO.C,TP3*%
X14500000Y-44500000D03*
%TD*%
D22*
%TO.C,C13*%
X34500000Y-63900000D03*
D14*
X34500000Y-66400000D03*
%TD*%
%TO.C,C12*%
X23500000Y-42500000D03*
X23500000Y-47500000D03*
%TD*%
D17*
%TO.C,J3*%
X19500000Y-67500000D03*
%TD*%
D14*
%TO.C,R5*%
X69690000Y-18500000D03*
X77310000Y-18500000D03*
%TD*%
%TO.C,R6*%
X48380000Y-63500000D03*
X56000000Y-63500000D03*
%TD*%
D13*
%TO.C,TP1*%
X85000000Y-62000000D03*
%TD*%
D12*
%TO.C,RV2*%
X65700000Y-27225000D03*
X75300000Y-27225000D03*
D10*
X68000000Y-34725000D03*
D11*
X70500000Y-34725000D03*
X73000000Y-34725000D03*
%TD*%
D14*
%TO.C,R16*%
X15300000Y-62500000D03*
X28000000Y-62500000D03*
%TD*%
%TO.C,C8*%
X72500000Y-40500000D03*
X77500000Y-40500000D03*
%TD*%
%TO.C,R1*%
X53810000Y-59000000D03*
X46190000Y-59000000D03*
%TD*%
%TO.C,R17*%
X22310000Y-55500000D03*
X14690000Y-55500000D03*
%TD*%
%TO.C,C1*%
X52000000Y-54000000D03*
X47000000Y-54000000D03*
%TD*%
%TO.C,R3*%
X18500000Y-44810000D03*
X18500000Y-37190000D03*
%TD*%
%TO.C,R13*%
X41000000Y-43880000D03*
X41000000Y-51500000D03*
%TD*%
%TO.C,C15*%
X28000000Y-67500000D03*
X23000000Y-67500000D03*
%TD*%
D23*
%TO.C,C6*%
X58000000Y-57000000D03*
D14*
X58000000Y-54500000D03*
%TD*%
%TO.C,C11*%
X60500000Y-48500000D03*
X60500000Y-43500000D03*
%TD*%
D23*
%TO.C,C2*%
X77500000Y-70000000D03*
D14*
X77500000Y-67500000D03*
%TD*%
%TO.C,R2*%
X38310000Y-54000000D03*
X30690000Y-54000000D03*
%TD*%
%TO.C,R14*%
X52690000Y-34500000D03*
X60310000Y-34500000D03*
%TD*%
%TO.C,R15*%
X65500000Y-51620000D03*
X65500000Y-44000000D03*
%TD*%
%TO.C,C10*%
X43500000Y-34500000D03*
X48500000Y-34500000D03*
%TD*%
%TO.C,R9*%
X63500000Y-62310000D03*
X63500000Y-54690000D03*
%TD*%
D13*
%TO.C,TP2*%
X85000000Y-52000000D03*
%TD*%
D14*
%TO.C,C4*%
X70000000Y-45500000D03*
X75000000Y-45500000D03*
%TD*%
D22*
%TO.C,D2*%
X81160000Y-52620000D03*
D14*
X81160000Y-60240000D03*
%TD*%
%TO.C,R18*%
X14690000Y-51000000D03*
X22310000Y-51000000D03*
%TD*%
D17*
%TO.C,J4*%
X86000000Y-68000000D03*
%TD*%
D23*
%TO.C,D1*%
X77000000Y-60310000D03*
D14*
X77000000Y-52690000D03*
%TD*%
M02*
