%TF.GenerationSoftware,KiCad,Pcbnew,9.0.6*%
%TF.CreationDate,2025-12-29T20:46:53-03:00*%
%TF.ProjectId,122025,31323230-3235-42e6-9b69-6361645f7063,A*%
%TF.SameCoordinates,Original*%
%TF.FileFunction,Legend,Bot*%
%TF.FilePolarity,Positive*%
%FSLAX46Y46*%
G04 Gerber Fmt 4.6, Leading zero omitted, Abs format (unit mm)*
G04 Created by KiCad (PCBNEW 9.0.6) date 2025-12-29 20:46:53*
%MOMM*%
%LPD*%
G01*
G04 APERTURE LIST*
%ADD10C,0.200000*%
%ADD11C,0.120000*%
G04 APERTURE END LIST*
D10*
X13367219Y-57738095D02*
X13367219Y-58309523D01*
X14367219Y-58023809D02*
X13367219Y-58023809D01*
X14367219Y-58642857D02*
X13367219Y-58642857D01*
X13367219Y-58642857D02*
X13367219Y-59023809D01*
X13367219Y-59023809D02*
X13414838Y-59119047D01*
X13414838Y-59119047D02*
X13462457Y-59166666D01*
X13462457Y-59166666D02*
X13557695Y-59214285D01*
X13557695Y-59214285D02*
X13700552Y-59214285D01*
X13700552Y-59214285D02*
X13795790Y-59166666D01*
X13795790Y-59166666D02*
X13843409Y-59119047D01*
X13843409Y-59119047D02*
X13891028Y-59023809D01*
X13891028Y-59023809D02*
X13891028Y-58642857D01*
X13367219Y-60119047D02*
X13367219Y-59642857D01*
X13367219Y-59642857D02*
X13843409Y-59595238D01*
X13843409Y-59595238D02*
X13795790Y-59642857D01*
X13795790Y-59642857D02*
X13748171Y-59738095D01*
X13748171Y-59738095D02*
X13748171Y-59976190D01*
X13748171Y-59976190D02*
X13795790Y-60071428D01*
X13795790Y-60071428D02*
X13843409Y-60119047D01*
X13843409Y-60119047D02*
X13938647Y-60166666D01*
X13938647Y-60166666D02*
X14176742Y-60166666D01*
X14176742Y-60166666D02*
X14271980Y-60119047D01*
X14271980Y-60119047D02*
X14319600Y-60071428D01*
X14319600Y-60071428D02*
X14367219Y-59976190D01*
X14367219Y-59976190D02*
X14367219Y-59738095D01*
X14367219Y-59738095D02*
X14319600Y-59642857D01*
X14319600Y-59642857D02*
X14271980Y-59595238D01*
X34761904Y-68867219D02*
X34190476Y-68867219D01*
X34476190Y-69867219D02*
X34476190Y-68867219D01*
X33857142Y-69867219D02*
X33857142Y-68867219D01*
X33857142Y-68867219D02*
X33476190Y-68867219D01*
X33476190Y-68867219D02*
X33380952Y-68914838D01*
X33380952Y-68914838D02*
X33333333Y-68962457D01*
X33333333Y-68962457D02*
X33285714Y-69057695D01*
X33285714Y-69057695D02*
X33285714Y-69200552D01*
X33285714Y-69200552D02*
X33333333Y-69295790D01*
X33333333Y-69295790D02*
X33380952Y-69343409D01*
X33380952Y-69343409D02*
X33476190Y-69391028D01*
X33476190Y-69391028D02*
X33857142Y-69391028D01*
X32428571Y-69200552D02*
X32428571Y-69867219D01*
X32666666Y-68819600D02*
X32904761Y-69533885D01*
X32904761Y-69533885D02*
X32285714Y-69533885D01*
X15761904Y-41867219D02*
X15190476Y-41867219D01*
X15476190Y-42867219D02*
X15476190Y-41867219D01*
X14857142Y-42867219D02*
X14857142Y-41867219D01*
X14857142Y-41867219D02*
X14476190Y-41867219D01*
X14476190Y-41867219D02*
X14380952Y-41914838D01*
X14380952Y-41914838D02*
X14333333Y-41962457D01*
X14333333Y-41962457D02*
X14285714Y-42057695D01*
X14285714Y-42057695D02*
X14285714Y-42200552D01*
X14285714Y-42200552D02*
X14333333Y-42295790D01*
X14333333Y-42295790D02*
X14380952Y-42343409D01*
X14380952Y-42343409D02*
X14476190Y-42391028D01*
X14476190Y-42391028D02*
X14857142Y-42391028D01*
X13952380Y-41867219D02*
X13333333Y-41867219D01*
X13333333Y-41867219D02*
X13666666Y-42248171D01*
X13666666Y-42248171D02*
X13523809Y-42248171D01*
X13523809Y-42248171D02*
X13428571Y-42295790D01*
X13428571Y-42295790D02*
X13380952Y-42343409D01*
X13380952Y-42343409D02*
X13333333Y-42438647D01*
X13333333Y-42438647D02*
X13333333Y-42676742D01*
X13333333Y-42676742D02*
X13380952Y-42771980D01*
X13380952Y-42771980D02*
X13428571Y-42819600D01*
X13428571Y-42819600D02*
X13523809Y-42867219D01*
X13523809Y-42867219D02*
X13809523Y-42867219D01*
X13809523Y-42867219D02*
X13904761Y-42819600D01*
X13904761Y-42819600D02*
X13952380Y-42771980D01*
X86261904Y-59367219D02*
X85690476Y-59367219D01*
X85976190Y-60367219D02*
X85976190Y-59367219D01*
X85357142Y-60367219D02*
X85357142Y-59367219D01*
X85357142Y-59367219D02*
X84976190Y-59367219D01*
X84976190Y-59367219D02*
X84880952Y-59414838D01*
X84880952Y-59414838D02*
X84833333Y-59462457D01*
X84833333Y-59462457D02*
X84785714Y-59557695D01*
X84785714Y-59557695D02*
X84785714Y-59700552D01*
X84785714Y-59700552D02*
X84833333Y-59795790D01*
X84833333Y-59795790D02*
X84880952Y-59843409D01*
X84880952Y-59843409D02*
X84976190Y-59891028D01*
X84976190Y-59891028D02*
X85357142Y-59891028D01*
X83833333Y-60367219D02*
X84404761Y-60367219D01*
X84119047Y-60367219D02*
X84119047Y-59367219D01*
X84119047Y-59367219D02*
X84214285Y-59510076D01*
X84214285Y-59510076D02*
X84309523Y-59605314D01*
X84309523Y-59605314D02*
X84404761Y-59652933D01*
X86261904Y-49367219D02*
X85690476Y-49367219D01*
X85976190Y-50367219D02*
X85976190Y-49367219D01*
X85357142Y-50367219D02*
X85357142Y-49367219D01*
X85357142Y-49367219D02*
X84976190Y-49367219D01*
X84976190Y-49367219D02*
X84880952Y-49414838D01*
X84880952Y-49414838D02*
X84833333Y-49462457D01*
X84833333Y-49462457D02*
X84785714Y-49557695D01*
X84785714Y-49557695D02*
X84785714Y-49700552D01*
X84785714Y-49700552D02*
X84833333Y-49795790D01*
X84833333Y-49795790D02*
X84880952Y-49843409D01*
X84880952Y-49843409D02*
X84976190Y-49891028D01*
X84976190Y-49891028D02*
X85357142Y-49891028D01*
X84404761Y-49462457D02*
X84357142Y-49414838D01*
X84357142Y-49414838D02*
X84261904Y-49367219D01*
X84261904Y-49367219D02*
X84023809Y-49367219D01*
X84023809Y-49367219D02*
X83928571Y-49414838D01*
X83928571Y-49414838D02*
X83880952Y-49462457D01*
X83880952Y-49462457D02*
X83833333Y-49557695D01*
X83833333Y-49557695D02*
X83833333Y-49652933D01*
X83833333Y-49652933D02*
X83880952Y-49795790D01*
X83880952Y-49795790D02*
X84452380Y-50367219D01*
X84452380Y-50367219D02*
X83833333Y-50367219D01*
D11*
%TO.C,TP5*%
X15050000Y-58050000D02*
X16950000Y-58050000D01*
X15050000Y-59950000D02*
X15050000Y-58050000D01*
X16950000Y-58050000D02*
X16950000Y-59950000D01*
X16950000Y-59950000D02*
X15050000Y-59950000D01*
%TO.C,TP4*%
X30050000Y-68050000D02*
X31950000Y-68050000D01*
X30050000Y-69950000D02*
X30050000Y-68050000D01*
X31950000Y-68050000D02*
X31950000Y-69950000D01*
X31950000Y-69950000D02*
X30050000Y-69950000D01*
%TO.C,TP3*%
X13550000Y-43550000D02*
X15450000Y-43550000D01*
X13550000Y-45450000D02*
X13550000Y-43550000D01*
X15450000Y-43550000D02*
X15450000Y-45450000D01*
X15450000Y-45450000D02*
X13550000Y-45450000D01*
%TO.C,TP1*%
X84050000Y-61050000D02*
X85950000Y-61050000D01*
X84050000Y-62950000D02*
X84050000Y-61050000D01*
X85950000Y-61050000D02*
X85950000Y-62950000D01*
X85950000Y-62950000D02*
X84050000Y-62950000D01*
%TO.C,TP2*%
X84050000Y-51050000D02*
X85950000Y-51050000D01*
X84050000Y-52950000D02*
X84050000Y-51050000D01*
X85950000Y-51050000D02*
X85950000Y-52950000D01*
X85950000Y-52950000D02*
X84050000Y-52950000D01*
%TD*%
M02*
