%TF.GenerationSoftware,KiCad,Pcbnew,9.0.6*%
%TF.CreationDate,2025-12-29T20:46:53-03:00*%
%TF.ProjectId,122025,31323230-3235-42e6-9b69-6361645f7063,A*%
%TF.SameCoordinates,Original*%
%TF.FileFunction,Legend,Top*%
%TF.FilePolarity,Positive*%
%FSLAX46Y46*%
G04 Gerber Fmt 4.6, Leading zero omitted, Abs format (unit mm)*
G04 Created by KiCad (PCBNEW 9.0.6) date 2025-12-29 20:46:53*
%MOMM*%
%LPD*%
G01*
G04 APERTURE LIST*
%ADD10C,0.300000*%
%ADD11C,0.150000*%
%ADD12C,0.200000*%
%ADD13C,0.120000*%
G04 APERTURE END LIST*
D10*
X16054510Y-16270366D02*
X15554510Y-16270366D01*
X15554510Y-17056080D02*
X15554510Y-15556080D01*
X15554510Y-15556080D02*
X16268796Y-15556080D01*
X17483082Y-16056080D02*
X17483082Y-17056080D01*
X16840224Y-16056080D02*
X16840224Y-16841794D01*
X16840224Y-16841794D02*
X16911653Y-16984652D01*
X16911653Y-16984652D02*
X17054510Y-17056080D01*
X17054510Y-17056080D02*
X17268796Y-17056080D01*
X17268796Y-17056080D02*
X17411653Y-16984652D01*
X17411653Y-16984652D02*
X17483082Y-16913223D01*
X18054510Y-16056080D02*
X18840225Y-16056080D01*
X18840225Y-16056080D02*
X18054510Y-17056080D01*
X18054510Y-17056080D02*
X18840225Y-17056080D01*
X19268796Y-16056080D02*
X20054511Y-16056080D01*
X20054511Y-16056080D02*
X19268796Y-17056080D01*
X19268796Y-17056080D02*
X20054511Y-17056080D01*
X20483082Y-16056080D02*
X21268797Y-16056080D01*
X21268797Y-16056080D02*
X20483082Y-17056080D01*
X20483082Y-17056080D02*
X21268797Y-17056080D01*
X21697368Y-16056080D02*
X22483083Y-16056080D01*
X22483083Y-16056080D02*
X21697368Y-17056080D01*
X21697368Y-17056080D02*
X22483083Y-17056080D01*
X22911654Y-16056080D02*
X23697369Y-16056080D01*
X23697369Y-16056080D02*
X22911654Y-17056080D01*
X22911654Y-17056080D02*
X23697369Y-17056080D01*
X24125940Y-16056080D02*
X24911655Y-16056080D01*
X24911655Y-16056080D02*
X24125940Y-17056080D01*
X24125940Y-17056080D02*
X24911655Y-17056080D01*
X25340226Y-16056080D02*
X26125941Y-16056080D01*
X26125941Y-16056080D02*
X25340226Y-17056080D01*
X25340226Y-17056080D02*
X26125941Y-17056080D01*
X16340225Y-19470996D02*
X15483082Y-19470996D01*
X15911653Y-19470996D02*
X15911653Y-17970996D01*
X15911653Y-17970996D02*
X15768796Y-18185282D01*
X15768796Y-18185282D02*
X15625939Y-18328139D01*
X15625939Y-18328139D02*
X15483082Y-18399568D01*
X16911653Y-18113853D02*
X16983081Y-18042425D01*
X16983081Y-18042425D02*
X17125939Y-17970996D01*
X17125939Y-17970996D02*
X17483081Y-17970996D01*
X17483081Y-17970996D02*
X17625939Y-18042425D01*
X17625939Y-18042425D02*
X17697367Y-18113853D01*
X17697367Y-18113853D02*
X17768796Y-18256710D01*
X17768796Y-18256710D02*
X17768796Y-18399568D01*
X17768796Y-18399568D02*
X17697367Y-18613853D01*
X17697367Y-18613853D02*
X16840224Y-19470996D01*
X16840224Y-19470996D02*
X17768796Y-19470996D01*
X19483081Y-17899568D02*
X18197367Y-19828139D01*
X19911653Y-18113853D02*
X19983081Y-18042425D01*
X19983081Y-18042425D02*
X20125939Y-17970996D01*
X20125939Y-17970996D02*
X20483081Y-17970996D01*
X20483081Y-17970996D02*
X20625939Y-18042425D01*
X20625939Y-18042425D02*
X20697367Y-18113853D01*
X20697367Y-18113853D02*
X20768796Y-18256710D01*
X20768796Y-18256710D02*
X20768796Y-18399568D01*
X20768796Y-18399568D02*
X20697367Y-18613853D01*
X20697367Y-18613853D02*
X19840224Y-19470996D01*
X19840224Y-19470996D02*
X20768796Y-19470996D01*
X21697367Y-17970996D02*
X21840224Y-17970996D01*
X21840224Y-17970996D02*
X21983081Y-18042425D01*
X21983081Y-18042425D02*
X22054510Y-18113853D01*
X22054510Y-18113853D02*
X22125938Y-18256710D01*
X22125938Y-18256710D02*
X22197367Y-18542425D01*
X22197367Y-18542425D02*
X22197367Y-18899568D01*
X22197367Y-18899568D02*
X22125938Y-19185282D01*
X22125938Y-19185282D02*
X22054510Y-19328139D01*
X22054510Y-19328139D02*
X21983081Y-19399568D01*
X21983081Y-19399568D02*
X21840224Y-19470996D01*
X21840224Y-19470996D02*
X21697367Y-19470996D01*
X21697367Y-19470996D02*
X21554510Y-19399568D01*
X21554510Y-19399568D02*
X21483081Y-19328139D01*
X21483081Y-19328139D02*
X21411652Y-19185282D01*
X21411652Y-19185282D02*
X21340224Y-18899568D01*
X21340224Y-18899568D02*
X21340224Y-18542425D01*
X21340224Y-18542425D02*
X21411652Y-18256710D01*
X21411652Y-18256710D02*
X21483081Y-18113853D01*
X21483081Y-18113853D02*
X21554510Y-18042425D01*
X21554510Y-18042425D02*
X21697367Y-17970996D01*
X22768795Y-18113853D02*
X22840223Y-18042425D01*
X22840223Y-18042425D02*
X22983081Y-17970996D01*
X22983081Y-17970996D02*
X23340223Y-17970996D01*
X23340223Y-17970996D02*
X23483081Y-18042425D01*
X23483081Y-18042425D02*
X23554509Y-18113853D01*
X23554509Y-18113853D02*
X23625938Y-18256710D01*
X23625938Y-18256710D02*
X23625938Y-18399568D01*
X23625938Y-18399568D02*
X23554509Y-18613853D01*
X23554509Y-18613853D02*
X22697366Y-19470996D01*
X22697366Y-19470996D02*
X23625938Y-19470996D01*
X24983080Y-17970996D02*
X24268794Y-17970996D01*
X24268794Y-17970996D02*
X24197366Y-18685282D01*
X24197366Y-18685282D02*
X24268794Y-18613853D01*
X24268794Y-18613853D02*
X24411652Y-18542425D01*
X24411652Y-18542425D02*
X24768794Y-18542425D01*
X24768794Y-18542425D02*
X24911652Y-18613853D01*
X24911652Y-18613853D02*
X24983080Y-18685282D01*
X24983080Y-18685282D02*
X25054509Y-18828139D01*
X25054509Y-18828139D02*
X25054509Y-19185282D01*
X25054509Y-19185282D02*
X24983080Y-19328139D01*
X24983080Y-19328139D02*
X24911652Y-19399568D01*
X24911652Y-19399568D02*
X24768794Y-19470996D01*
X24768794Y-19470996D02*
X24411652Y-19470996D01*
X24411652Y-19470996D02*
X24268794Y-19399568D01*
X24268794Y-19399568D02*
X24197366Y-19328139D01*
X16411653Y-21885912D02*
X15911653Y-21171626D01*
X15554510Y-21885912D02*
X15554510Y-20385912D01*
X15554510Y-20385912D02*
X16125939Y-20385912D01*
X16125939Y-20385912D02*
X16268796Y-20457341D01*
X16268796Y-20457341D02*
X16340225Y-20528769D01*
X16340225Y-20528769D02*
X16411653Y-20671626D01*
X16411653Y-20671626D02*
X16411653Y-20885912D01*
X16411653Y-20885912D02*
X16340225Y-21028769D01*
X16340225Y-21028769D02*
X16268796Y-21100198D01*
X16268796Y-21100198D02*
X16125939Y-21171626D01*
X16125939Y-21171626D02*
X15554510Y-21171626D01*
X17625939Y-21814484D02*
X17483082Y-21885912D01*
X17483082Y-21885912D02*
X17197368Y-21885912D01*
X17197368Y-21885912D02*
X17054510Y-21814484D01*
X17054510Y-21814484D02*
X16983082Y-21671626D01*
X16983082Y-21671626D02*
X16983082Y-21100198D01*
X16983082Y-21100198D02*
X17054510Y-20957341D01*
X17054510Y-20957341D02*
X17197368Y-20885912D01*
X17197368Y-20885912D02*
X17483082Y-20885912D01*
X17483082Y-20885912D02*
X17625939Y-20957341D01*
X17625939Y-20957341D02*
X17697368Y-21100198D01*
X17697368Y-21100198D02*
X17697368Y-21243055D01*
X17697368Y-21243055D02*
X16983082Y-21385912D01*
X18197367Y-20885912D02*
X18554510Y-21885912D01*
X18554510Y-21885912D02*
X18911653Y-20885912D01*
X20554510Y-21457341D02*
X21268796Y-21457341D01*
X20411653Y-21885912D02*
X20911653Y-20385912D01*
X20911653Y-20385912D02*
X21411653Y-21885912D01*
X15554510Y-24300828D02*
X15554510Y-22800828D01*
X15554510Y-23515114D02*
X16411653Y-23515114D01*
X16411653Y-24300828D02*
X16411653Y-22800828D01*
X17054511Y-24229400D02*
X17197368Y-24300828D01*
X17197368Y-24300828D02*
X17483082Y-24300828D01*
X17483082Y-24300828D02*
X17625939Y-24229400D01*
X17625939Y-24229400D02*
X17697368Y-24086542D01*
X17697368Y-24086542D02*
X17697368Y-24015114D01*
X17697368Y-24015114D02*
X17625939Y-23872257D01*
X17625939Y-23872257D02*
X17483082Y-23800828D01*
X17483082Y-23800828D02*
X17268797Y-23800828D01*
X17268797Y-23800828D02*
X17125939Y-23729400D01*
X17125939Y-23729400D02*
X17054511Y-23586542D01*
X17054511Y-23586542D02*
X17054511Y-23515114D01*
X17054511Y-23515114D02*
X17125939Y-23372257D01*
X17125939Y-23372257D02*
X17268797Y-23300828D01*
X17268797Y-23300828D02*
X17483082Y-23300828D01*
X17483082Y-23300828D02*
X17625939Y-23372257D01*
X18554511Y-24300828D02*
X18411654Y-24229400D01*
X18411654Y-24229400D02*
X18340225Y-24157971D01*
X18340225Y-24157971D02*
X18268797Y-24015114D01*
X18268797Y-24015114D02*
X18268797Y-23586542D01*
X18268797Y-23586542D02*
X18340225Y-23443685D01*
X18340225Y-23443685D02*
X18411654Y-23372257D01*
X18411654Y-23372257D02*
X18554511Y-23300828D01*
X18554511Y-23300828D02*
X18768797Y-23300828D01*
X18768797Y-23300828D02*
X18911654Y-23372257D01*
X18911654Y-23372257D02*
X18983083Y-23443685D01*
X18983083Y-23443685D02*
X19054511Y-23586542D01*
X19054511Y-23586542D02*
X19054511Y-24015114D01*
X19054511Y-24015114D02*
X18983083Y-24157971D01*
X18983083Y-24157971D02*
X18911654Y-24229400D01*
X18911654Y-24229400D02*
X18768797Y-24300828D01*
X18768797Y-24300828D02*
X18554511Y-24300828D01*
D11*
X49761905Y-15994819D02*
X49761905Y-14994819D01*
X49761905Y-14994819D02*
X50000000Y-14994819D01*
X50000000Y-14994819D02*
X50142857Y-15042438D01*
X50142857Y-15042438D02*
X50238095Y-15137676D01*
X50238095Y-15137676D02*
X50285714Y-15232914D01*
X50285714Y-15232914D02*
X50333333Y-15423390D01*
X50333333Y-15423390D02*
X50333333Y-15566247D01*
X50333333Y-15566247D02*
X50285714Y-15756723D01*
X50285714Y-15756723D02*
X50238095Y-15851961D01*
X50238095Y-15851961D02*
X50142857Y-15947200D01*
X50142857Y-15947200D02*
X50000000Y-15994819D01*
X50000000Y-15994819D02*
X49761905Y-15994819D01*
X51190476Y-15328152D02*
X51190476Y-15994819D01*
X50952381Y-14947200D02*
X50714286Y-15661485D01*
X50714286Y-15661485D02*
X51333333Y-15661485D01*
X43814819Y-44610238D02*
X43338628Y-44943571D01*
X43814819Y-45181666D02*
X42814819Y-45181666D01*
X42814819Y-45181666D02*
X42814819Y-44800714D01*
X42814819Y-44800714D02*
X42862438Y-44705476D01*
X42862438Y-44705476D02*
X42910057Y-44657857D01*
X42910057Y-44657857D02*
X43005295Y-44610238D01*
X43005295Y-44610238D02*
X43148152Y-44610238D01*
X43148152Y-44610238D02*
X43243390Y-44657857D01*
X43243390Y-44657857D02*
X43291009Y-44705476D01*
X43291009Y-44705476D02*
X43338628Y-44800714D01*
X43338628Y-44800714D02*
X43338628Y-45181666D01*
X42814819Y-44324523D02*
X43814819Y-43991190D01*
X43814819Y-43991190D02*
X42814819Y-43657857D01*
X42814819Y-43419761D02*
X42814819Y-42800714D01*
X42814819Y-42800714D02*
X43195771Y-43134047D01*
X43195771Y-43134047D02*
X43195771Y-42991190D01*
X43195771Y-42991190D02*
X43243390Y-42895952D01*
X43243390Y-42895952D02*
X43291009Y-42848333D01*
X43291009Y-42848333D02*
X43386247Y-42800714D01*
X43386247Y-42800714D02*
X43624342Y-42800714D01*
X43624342Y-42800714D02*
X43719580Y-42848333D01*
X43719580Y-42848333D02*
X43767200Y-42895952D01*
X43767200Y-42895952D02*
X43814819Y-42991190D01*
X43814819Y-42991190D02*
X43814819Y-43276904D01*
X43814819Y-43276904D02*
X43767200Y-43372142D01*
X43767200Y-43372142D02*
X43719580Y-43419761D01*
D12*
X13367219Y-60261904D02*
X13367219Y-59690476D01*
X14367219Y-59976190D02*
X13367219Y-59976190D01*
X14367219Y-59357142D02*
X13367219Y-59357142D01*
X13367219Y-59357142D02*
X13367219Y-58976190D01*
X13367219Y-58976190D02*
X13414838Y-58880952D01*
X13414838Y-58880952D02*
X13462457Y-58833333D01*
X13462457Y-58833333D02*
X13557695Y-58785714D01*
X13557695Y-58785714D02*
X13700552Y-58785714D01*
X13700552Y-58785714D02*
X13795790Y-58833333D01*
X13795790Y-58833333D02*
X13843409Y-58880952D01*
X13843409Y-58880952D02*
X13891028Y-58976190D01*
X13891028Y-58976190D02*
X13891028Y-59357142D01*
X13367219Y-57880952D02*
X13367219Y-58357142D01*
X13367219Y-58357142D02*
X13843409Y-58404761D01*
X13843409Y-58404761D02*
X13795790Y-58357142D01*
X13795790Y-58357142D02*
X13748171Y-58261904D01*
X13748171Y-58261904D02*
X13748171Y-58023809D01*
X13748171Y-58023809D02*
X13795790Y-57928571D01*
X13795790Y-57928571D02*
X13843409Y-57880952D01*
X13843409Y-57880952D02*
X13938647Y-57833333D01*
X13938647Y-57833333D02*
X14176742Y-57833333D01*
X14176742Y-57833333D02*
X14271980Y-57880952D01*
X14271980Y-57880952D02*
X14319600Y-57928571D01*
X14319600Y-57928571D02*
X14367219Y-58023809D01*
X14367219Y-58023809D02*
X14367219Y-58261904D01*
X14367219Y-58261904D02*
X14319600Y-58357142D01*
X14319600Y-58357142D02*
X14271980Y-58404761D01*
D11*
X45833333Y-27359580D02*
X45785714Y-27407200D01*
X45785714Y-27407200D02*
X45642857Y-27454819D01*
X45642857Y-27454819D02*
X45547619Y-27454819D01*
X45547619Y-27454819D02*
X45404762Y-27407200D01*
X45404762Y-27407200D02*
X45309524Y-27311961D01*
X45309524Y-27311961D02*
X45261905Y-27216723D01*
X45261905Y-27216723D02*
X45214286Y-27026247D01*
X45214286Y-27026247D02*
X45214286Y-26883390D01*
X45214286Y-26883390D02*
X45261905Y-26692914D01*
X45261905Y-26692914D02*
X45309524Y-26597676D01*
X45309524Y-26597676D02*
X45404762Y-26502438D01*
X45404762Y-26502438D02*
X45547619Y-26454819D01*
X45547619Y-26454819D02*
X45642857Y-26454819D01*
X45642857Y-26454819D02*
X45785714Y-26502438D01*
X45785714Y-26502438D02*
X45833333Y-26550057D01*
X46309524Y-27454819D02*
X46500000Y-27454819D01*
X46500000Y-27454819D02*
X46595238Y-27407200D01*
X46595238Y-27407200D02*
X46642857Y-27359580D01*
X46642857Y-27359580D02*
X46738095Y-27216723D01*
X46738095Y-27216723D02*
X46785714Y-27026247D01*
X46785714Y-27026247D02*
X46785714Y-26645295D01*
X46785714Y-26645295D02*
X46738095Y-26550057D01*
X46738095Y-26550057D02*
X46690476Y-26502438D01*
X46690476Y-26502438D02*
X46595238Y-26454819D01*
X46595238Y-26454819D02*
X46404762Y-26454819D01*
X46404762Y-26454819D02*
X46309524Y-26502438D01*
X46309524Y-26502438D02*
X46261905Y-26550057D01*
X46261905Y-26550057D02*
X46214286Y-26645295D01*
X46214286Y-26645295D02*
X46214286Y-26883390D01*
X46214286Y-26883390D02*
X46261905Y-26978628D01*
X46261905Y-26978628D02*
X46309524Y-27026247D01*
X46309524Y-27026247D02*
X46404762Y-27073866D01*
X46404762Y-27073866D02*
X46595238Y-27073866D01*
X46595238Y-27073866D02*
X46690476Y-27026247D01*
X46690476Y-27026247D02*
X46738095Y-26978628D01*
X46738095Y-26978628D02*
X46785714Y-26883390D01*
X44424819Y-64738094D02*
X43424819Y-64738094D01*
X43424819Y-64738094D02*
X43424819Y-64499999D01*
X43424819Y-64499999D02*
X43472438Y-64357142D01*
X43472438Y-64357142D02*
X43567676Y-64261904D01*
X43567676Y-64261904D02*
X43662914Y-64214285D01*
X43662914Y-64214285D02*
X43853390Y-64166666D01*
X43853390Y-64166666D02*
X43996247Y-64166666D01*
X43996247Y-64166666D02*
X44186723Y-64214285D01*
X44186723Y-64214285D02*
X44281961Y-64261904D01*
X44281961Y-64261904D02*
X44377200Y-64357142D01*
X44377200Y-64357142D02*
X44424819Y-64499999D01*
X44424819Y-64499999D02*
X44424819Y-64738094D01*
X43424819Y-63833332D02*
X43424819Y-63214285D01*
X43424819Y-63214285D02*
X43805771Y-63547618D01*
X43805771Y-63547618D02*
X43805771Y-63404761D01*
X43805771Y-63404761D02*
X43853390Y-63309523D01*
X43853390Y-63309523D02*
X43901009Y-63261904D01*
X43901009Y-63261904D02*
X43996247Y-63214285D01*
X43996247Y-63214285D02*
X44234342Y-63214285D01*
X44234342Y-63214285D02*
X44329580Y-63261904D01*
X44329580Y-63261904D02*
X44377200Y-63309523D01*
X44377200Y-63309523D02*
X44424819Y-63404761D01*
X44424819Y-63404761D02*
X44424819Y-63690475D01*
X44424819Y-63690475D02*
X44377200Y-63785713D01*
X44377200Y-63785713D02*
X44329580Y-63833332D01*
X44054819Y-59181904D02*
X43054819Y-59181904D01*
X44054819Y-58610476D02*
X43483390Y-59039047D01*
X43054819Y-58610476D02*
X43626247Y-59181904D01*
X48166666Y-65844819D02*
X48166666Y-66559104D01*
X48166666Y-66559104D02*
X48119047Y-66701961D01*
X48119047Y-66701961D02*
X48023809Y-66797200D01*
X48023809Y-66797200D02*
X47880952Y-66844819D01*
X47880952Y-66844819D02*
X47785714Y-66844819D01*
X49119047Y-65844819D02*
X48642857Y-65844819D01*
X48642857Y-65844819D02*
X48595238Y-66321009D01*
X48595238Y-66321009D02*
X48642857Y-66273390D01*
X48642857Y-66273390D02*
X48738095Y-66225771D01*
X48738095Y-66225771D02*
X48976190Y-66225771D01*
X48976190Y-66225771D02*
X49071428Y-66273390D01*
X49071428Y-66273390D02*
X49119047Y-66321009D01*
X49119047Y-66321009D02*
X49166666Y-66416247D01*
X49166666Y-66416247D02*
X49166666Y-66654342D01*
X49166666Y-66654342D02*
X49119047Y-66749580D01*
X49119047Y-66749580D02*
X49071428Y-66797200D01*
X49071428Y-66797200D02*
X48976190Y-66844819D01*
X48976190Y-66844819D02*
X48738095Y-66844819D01*
X48738095Y-66844819D02*
X48642857Y-66797200D01*
X48642857Y-66797200D02*
X48595238Y-66749580D01*
D12*
X32238095Y-68867219D02*
X32809523Y-68867219D01*
X32523809Y-69867219D02*
X32523809Y-68867219D01*
X33142857Y-69867219D02*
X33142857Y-68867219D01*
X33142857Y-68867219D02*
X33523809Y-68867219D01*
X33523809Y-68867219D02*
X33619047Y-68914838D01*
X33619047Y-68914838D02*
X33666666Y-68962457D01*
X33666666Y-68962457D02*
X33714285Y-69057695D01*
X33714285Y-69057695D02*
X33714285Y-69200552D01*
X33714285Y-69200552D02*
X33666666Y-69295790D01*
X33666666Y-69295790D02*
X33619047Y-69343409D01*
X33619047Y-69343409D02*
X33523809Y-69391028D01*
X33523809Y-69391028D02*
X33142857Y-69391028D01*
X34571428Y-69200552D02*
X34571428Y-69867219D01*
X34333333Y-68819600D02*
X34095238Y-69533885D01*
X34095238Y-69533885D02*
X34714285Y-69533885D01*
D11*
X23814819Y-28610238D02*
X23338628Y-28943571D01*
X23814819Y-29181666D02*
X22814819Y-29181666D01*
X22814819Y-29181666D02*
X22814819Y-28800714D01*
X22814819Y-28800714D02*
X22862438Y-28705476D01*
X22862438Y-28705476D02*
X22910057Y-28657857D01*
X22910057Y-28657857D02*
X23005295Y-28610238D01*
X23005295Y-28610238D02*
X23148152Y-28610238D01*
X23148152Y-28610238D02*
X23243390Y-28657857D01*
X23243390Y-28657857D02*
X23291009Y-28705476D01*
X23291009Y-28705476D02*
X23338628Y-28800714D01*
X23338628Y-28800714D02*
X23338628Y-29181666D01*
X22814819Y-28324523D02*
X23814819Y-27991190D01*
X23814819Y-27991190D02*
X22814819Y-27657857D01*
X23814819Y-26800714D02*
X23814819Y-27372142D01*
X23814819Y-27086428D02*
X22814819Y-27086428D01*
X22814819Y-27086428D02*
X22957676Y-27181666D01*
X22957676Y-27181666D02*
X23052914Y-27276904D01*
X23052914Y-27276904D02*
X23100533Y-27372142D01*
X82833333Y-20084819D02*
X82500000Y-19608628D01*
X82261905Y-20084819D02*
X82261905Y-19084819D01*
X82261905Y-19084819D02*
X82642857Y-19084819D01*
X82642857Y-19084819D02*
X82738095Y-19132438D01*
X82738095Y-19132438D02*
X82785714Y-19180057D01*
X82785714Y-19180057D02*
X82833333Y-19275295D01*
X82833333Y-19275295D02*
X82833333Y-19418152D01*
X82833333Y-19418152D02*
X82785714Y-19513390D01*
X82785714Y-19513390D02*
X82738095Y-19561009D01*
X82738095Y-19561009D02*
X82642857Y-19608628D01*
X82642857Y-19608628D02*
X82261905Y-19608628D01*
X83690476Y-19418152D02*
X83690476Y-20084819D01*
X83452381Y-19037200D02*
X83214286Y-19751485D01*
X83214286Y-19751485D02*
X83833333Y-19751485D01*
X15166666Y-64844819D02*
X15166666Y-65559104D01*
X15166666Y-65559104D02*
X15119047Y-65701961D01*
X15119047Y-65701961D02*
X15023809Y-65797200D01*
X15023809Y-65797200D02*
X14880952Y-65844819D01*
X14880952Y-65844819D02*
X14785714Y-65844819D01*
X15595238Y-64940057D02*
X15642857Y-64892438D01*
X15642857Y-64892438D02*
X15738095Y-64844819D01*
X15738095Y-64844819D02*
X15976190Y-64844819D01*
X15976190Y-64844819D02*
X16071428Y-64892438D01*
X16071428Y-64892438D02*
X16119047Y-64940057D01*
X16119047Y-64940057D02*
X16166666Y-65035295D01*
X16166666Y-65035295D02*
X16166666Y-65130533D01*
X16166666Y-65130533D02*
X16119047Y-65273390D01*
X16119047Y-65273390D02*
X15547619Y-65844819D01*
X15547619Y-65844819D02*
X16166666Y-65844819D01*
X65047142Y-42824819D02*
X64713809Y-42348628D01*
X64475714Y-42824819D02*
X64475714Y-41824819D01*
X64475714Y-41824819D02*
X64856666Y-41824819D01*
X64856666Y-41824819D02*
X64951904Y-41872438D01*
X64951904Y-41872438D02*
X64999523Y-41920057D01*
X64999523Y-41920057D02*
X65047142Y-42015295D01*
X65047142Y-42015295D02*
X65047142Y-42158152D01*
X65047142Y-42158152D02*
X64999523Y-42253390D01*
X64999523Y-42253390D02*
X64951904Y-42301009D01*
X64951904Y-42301009D02*
X64856666Y-42348628D01*
X64856666Y-42348628D02*
X64475714Y-42348628D01*
X65999523Y-42824819D02*
X65428095Y-42824819D01*
X65713809Y-42824819D02*
X65713809Y-41824819D01*
X65713809Y-41824819D02*
X65618571Y-41967676D01*
X65618571Y-41967676D02*
X65523333Y-42062914D01*
X65523333Y-42062914D02*
X65428095Y-42110533D01*
X66951904Y-42824819D02*
X66380476Y-42824819D01*
X66666190Y-42824819D02*
X66666190Y-41824819D01*
X66666190Y-41824819D02*
X66570952Y-41967676D01*
X66570952Y-41967676D02*
X66475714Y-42062914D01*
X66475714Y-42062914D02*
X66380476Y-42110533D01*
X60357142Y-15954819D02*
X60023809Y-15478628D01*
X59785714Y-15954819D02*
X59785714Y-14954819D01*
X59785714Y-14954819D02*
X60166666Y-14954819D01*
X60166666Y-14954819D02*
X60261904Y-15002438D01*
X60261904Y-15002438D02*
X60309523Y-15050057D01*
X60309523Y-15050057D02*
X60357142Y-15145295D01*
X60357142Y-15145295D02*
X60357142Y-15288152D01*
X60357142Y-15288152D02*
X60309523Y-15383390D01*
X60309523Y-15383390D02*
X60261904Y-15431009D01*
X60261904Y-15431009D02*
X60166666Y-15478628D01*
X60166666Y-15478628D02*
X59785714Y-15478628D01*
X61309523Y-15954819D02*
X60738095Y-15954819D01*
X61023809Y-15954819D02*
X61023809Y-14954819D01*
X61023809Y-14954819D02*
X60928571Y-15097676D01*
X60928571Y-15097676D02*
X60833333Y-15192914D01*
X60833333Y-15192914D02*
X60738095Y-15240533D01*
X61785714Y-15954819D02*
X61976190Y-15954819D01*
X61976190Y-15954819D02*
X62071428Y-15907200D01*
X62071428Y-15907200D02*
X62119047Y-15859580D01*
X62119047Y-15859580D02*
X62214285Y-15716723D01*
X62214285Y-15716723D02*
X62261904Y-15526247D01*
X62261904Y-15526247D02*
X62261904Y-15145295D01*
X62261904Y-15145295D02*
X62214285Y-15050057D01*
X62214285Y-15050057D02*
X62166666Y-15002438D01*
X62166666Y-15002438D02*
X62071428Y-14954819D01*
X62071428Y-14954819D02*
X61880952Y-14954819D01*
X61880952Y-14954819D02*
X61785714Y-15002438D01*
X61785714Y-15002438D02*
X61738095Y-15050057D01*
X61738095Y-15050057D02*
X61690476Y-15145295D01*
X61690476Y-15145295D02*
X61690476Y-15383390D01*
X61690476Y-15383390D02*
X61738095Y-15478628D01*
X61738095Y-15478628D02*
X61785714Y-15526247D01*
X61785714Y-15526247D02*
X61880952Y-15573866D01*
X61880952Y-15573866D02*
X62071428Y-15573866D01*
X62071428Y-15573866D02*
X62166666Y-15526247D01*
X62166666Y-15526247D02*
X62214285Y-15478628D01*
X62214285Y-15478628D02*
X62261904Y-15383390D01*
X70294761Y-55110057D02*
X70199523Y-55062438D01*
X70199523Y-55062438D02*
X70104285Y-54967200D01*
X70104285Y-54967200D02*
X69961428Y-54824342D01*
X69961428Y-54824342D02*
X69866190Y-54776723D01*
X69866190Y-54776723D02*
X69770952Y-54776723D01*
X69818571Y-55014819D02*
X69723333Y-54967200D01*
X69723333Y-54967200D02*
X69628095Y-54871961D01*
X69628095Y-54871961D02*
X69580476Y-54681485D01*
X69580476Y-54681485D02*
X69580476Y-54348152D01*
X69580476Y-54348152D02*
X69628095Y-54157676D01*
X69628095Y-54157676D02*
X69723333Y-54062438D01*
X69723333Y-54062438D02*
X69818571Y-54014819D01*
X69818571Y-54014819D02*
X70009047Y-54014819D01*
X70009047Y-54014819D02*
X70104285Y-54062438D01*
X70104285Y-54062438D02*
X70199523Y-54157676D01*
X70199523Y-54157676D02*
X70247142Y-54348152D01*
X70247142Y-54348152D02*
X70247142Y-54681485D01*
X70247142Y-54681485D02*
X70199523Y-54871961D01*
X70199523Y-54871961D02*
X70104285Y-54967200D01*
X70104285Y-54967200D02*
X70009047Y-55014819D01*
X70009047Y-55014819D02*
X69818571Y-55014819D01*
X71199523Y-55014819D02*
X70628095Y-55014819D01*
X70913809Y-55014819D02*
X70913809Y-54014819D01*
X70913809Y-54014819D02*
X70818571Y-54157676D01*
X70818571Y-54157676D02*
X70723333Y-54252914D01*
X70723333Y-54252914D02*
X70628095Y-54300533D01*
X36738095Y-40454819D02*
X36738095Y-41264342D01*
X36738095Y-41264342D02*
X36785714Y-41359580D01*
X36785714Y-41359580D02*
X36833333Y-41407200D01*
X36833333Y-41407200D02*
X36928571Y-41454819D01*
X36928571Y-41454819D02*
X37119047Y-41454819D01*
X37119047Y-41454819D02*
X37214285Y-41407200D01*
X37214285Y-41407200D02*
X37261904Y-41359580D01*
X37261904Y-41359580D02*
X37309523Y-41264342D01*
X37309523Y-41264342D02*
X37309523Y-40454819D01*
X38309523Y-41454819D02*
X37738095Y-41454819D01*
X38023809Y-41454819D02*
X38023809Y-40454819D01*
X38023809Y-40454819D02*
X37928571Y-40597676D01*
X37928571Y-40597676D02*
X37833333Y-40692914D01*
X37833333Y-40692914D02*
X37738095Y-40740533D01*
X56047142Y-27584819D02*
X55713809Y-27108628D01*
X55475714Y-27584819D02*
X55475714Y-26584819D01*
X55475714Y-26584819D02*
X55856666Y-26584819D01*
X55856666Y-26584819D02*
X55951904Y-26632438D01*
X55951904Y-26632438D02*
X55999523Y-26680057D01*
X55999523Y-26680057D02*
X56047142Y-26775295D01*
X56047142Y-26775295D02*
X56047142Y-26918152D01*
X56047142Y-26918152D02*
X55999523Y-27013390D01*
X55999523Y-27013390D02*
X55951904Y-27061009D01*
X55951904Y-27061009D02*
X55856666Y-27108628D01*
X55856666Y-27108628D02*
X55475714Y-27108628D01*
X56999523Y-27584819D02*
X56428095Y-27584819D01*
X56713809Y-27584819D02*
X56713809Y-26584819D01*
X56713809Y-26584819D02*
X56618571Y-26727676D01*
X56618571Y-26727676D02*
X56523333Y-26822914D01*
X56523333Y-26822914D02*
X56428095Y-26870533D01*
X57380476Y-26680057D02*
X57428095Y-26632438D01*
X57428095Y-26632438D02*
X57523333Y-26584819D01*
X57523333Y-26584819D02*
X57761428Y-26584819D01*
X57761428Y-26584819D02*
X57856666Y-26632438D01*
X57856666Y-26632438D02*
X57904285Y-26680057D01*
X57904285Y-26680057D02*
X57951904Y-26775295D01*
X57951904Y-26775295D02*
X57951904Y-26870533D01*
X57951904Y-26870533D02*
X57904285Y-27013390D01*
X57904285Y-27013390D02*
X57332857Y-27584819D01*
X57332857Y-27584819D02*
X57951904Y-27584819D01*
X25812255Y-58109580D02*
X25764636Y-58157200D01*
X25764636Y-58157200D02*
X25621779Y-58204819D01*
X25621779Y-58204819D02*
X25526541Y-58204819D01*
X25526541Y-58204819D02*
X25383684Y-58157200D01*
X25383684Y-58157200D02*
X25288446Y-58061961D01*
X25288446Y-58061961D02*
X25240827Y-57966723D01*
X25240827Y-57966723D02*
X25193208Y-57776247D01*
X25193208Y-57776247D02*
X25193208Y-57633390D01*
X25193208Y-57633390D02*
X25240827Y-57442914D01*
X25240827Y-57442914D02*
X25288446Y-57347676D01*
X25288446Y-57347676D02*
X25383684Y-57252438D01*
X25383684Y-57252438D02*
X25526541Y-57204819D01*
X25526541Y-57204819D02*
X25621779Y-57204819D01*
X25621779Y-57204819D02*
X25764636Y-57252438D01*
X25764636Y-57252438D02*
X25812255Y-57300057D01*
X26764636Y-58204819D02*
X26193208Y-58204819D01*
X26478922Y-58204819D02*
X26478922Y-57204819D01*
X26478922Y-57204819D02*
X26383684Y-57347676D01*
X26383684Y-57347676D02*
X26288446Y-57442914D01*
X26288446Y-57442914D02*
X26193208Y-57490533D01*
X27621779Y-57538152D02*
X27621779Y-58204819D01*
X27383684Y-57157200D02*
X27145589Y-57871485D01*
X27145589Y-57871485D02*
X27764636Y-57871485D01*
X82166666Y-65344819D02*
X82166666Y-66059104D01*
X82166666Y-66059104D02*
X82119047Y-66201961D01*
X82119047Y-66201961D02*
X82023809Y-66297200D01*
X82023809Y-66297200D02*
X81880952Y-66344819D01*
X81880952Y-66344819D02*
X81785714Y-66344819D01*
X83166666Y-66344819D02*
X82595238Y-66344819D01*
X82880952Y-66344819D02*
X82880952Y-65344819D01*
X82880952Y-65344819D02*
X82785714Y-65487676D01*
X82785714Y-65487676D02*
X82690476Y-65582914D01*
X82690476Y-65582914D02*
X82595238Y-65630533D01*
X81143333Y-49824819D02*
X80810000Y-49348628D01*
X80571905Y-49824819D02*
X80571905Y-48824819D01*
X80571905Y-48824819D02*
X80952857Y-48824819D01*
X80952857Y-48824819D02*
X81048095Y-48872438D01*
X81048095Y-48872438D02*
X81095714Y-48920057D01*
X81095714Y-48920057D02*
X81143333Y-49015295D01*
X81143333Y-49015295D02*
X81143333Y-49158152D01*
X81143333Y-49158152D02*
X81095714Y-49253390D01*
X81095714Y-49253390D02*
X81048095Y-49301009D01*
X81048095Y-49301009D02*
X80952857Y-49348628D01*
X80952857Y-49348628D02*
X80571905Y-49348628D01*
X81714762Y-49253390D02*
X81619524Y-49205771D01*
X81619524Y-49205771D02*
X81571905Y-49158152D01*
X81571905Y-49158152D02*
X81524286Y-49062914D01*
X81524286Y-49062914D02*
X81524286Y-49015295D01*
X81524286Y-49015295D02*
X81571905Y-48920057D01*
X81571905Y-48920057D02*
X81619524Y-48872438D01*
X81619524Y-48872438D02*
X81714762Y-48824819D01*
X81714762Y-48824819D02*
X81905238Y-48824819D01*
X81905238Y-48824819D02*
X82000476Y-48872438D01*
X82000476Y-48872438D02*
X82048095Y-48920057D01*
X82048095Y-48920057D02*
X82095714Y-49015295D01*
X82095714Y-49015295D02*
X82095714Y-49062914D01*
X82095714Y-49062914D02*
X82048095Y-49158152D01*
X82048095Y-49158152D02*
X82000476Y-49205771D01*
X82000476Y-49205771D02*
X81905238Y-49253390D01*
X81905238Y-49253390D02*
X81714762Y-49253390D01*
X81714762Y-49253390D02*
X81619524Y-49301009D01*
X81619524Y-49301009D02*
X81571905Y-49348628D01*
X81571905Y-49348628D02*
X81524286Y-49443866D01*
X81524286Y-49443866D02*
X81524286Y-49634342D01*
X81524286Y-49634342D02*
X81571905Y-49729580D01*
X81571905Y-49729580D02*
X81619524Y-49777200D01*
X81619524Y-49777200D02*
X81714762Y-49824819D01*
X81714762Y-49824819D02*
X81905238Y-49824819D01*
X81905238Y-49824819D02*
X82000476Y-49777200D01*
X82000476Y-49777200D02*
X82048095Y-49729580D01*
X82048095Y-49729580D02*
X82095714Y-49634342D01*
X82095714Y-49634342D02*
X82095714Y-49443866D01*
X82095714Y-49443866D02*
X82048095Y-49348628D01*
X82048095Y-49348628D02*
X82000476Y-49301009D01*
X82000476Y-49301009D02*
X81905238Y-49253390D01*
X71493333Y-61979580D02*
X71445714Y-62027200D01*
X71445714Y-62027200D02*
X71302857Y-62074819D01*
X71302857Y-62074819D02*
X71207619Y-62074819D01*
X71207619Y-62074819D02*
X71064762Y-62027200D01*
X71064762Y-62027200D02*
X70969524Y-61931961D01*
X70969524Y-61931961D02*
X70921905Y-61836723D01*
X70921905Y-61836723D02*
X70874286Y-61646247D01*
X70874286Y-61646247D02*
X70874286Y-61503390D01*
X70874286Y-61503390D02*
X70921905Y-61312914D01*
X70921905Y-61312914D02*
X70969524Y-61217676D01*
X70969524Y-61217676D02*
X71064762Y-61122438D01*
X71064762Y-61122438D02*
X71207619Y-61074819D01*
X71207619Y-61074819D02*
X71302857Y-61074819D01*
X71302857Y-61074819D02*
X71445714Y-61122438D01*
X71445714Y-61122438D02*
X71493333Y-61170057D01*
X71826667Y-61074819D02*
X72445714Y-61074819D01*
X72445714Y-61074819D02*
X72112381Y-61455771D01*
X72112381Y-61455771D02*
X72255238Y-61455771D01*
X72255238Y-61455771D02*
X72350476Y-61503390D01*
X72350476Y-61503390D02*
X72398095Y-61551009D01*
X72398095Y-61551009D02*
X72445714Y-61646247D01*
X72445714Y-61646247D02*
X72445714Y-61884342D01*
X72445714Y-61884342D02*
X72398095Y-61979580D01*
X72398095Y-61979580D02*
X72350476Y-62027200D01*
X72350476Y-62027200D02*
X72255238Y-62074819D01*
X72255238Y-62074819D02*
X71969524Y-62074819D01*
X71969524Y-62074819D02*
X71874286Y-62027200D01*
X71874286Y-62027200D02*
X71826667Y-61979580D01*
X87859580Y-36666666D02*
X87907200Y-36714285D01*
X87907200Y-36714285D02*
X87954819Y-36857142D01*
X87954819Y-36857142D02*
X87954819Y-36952380D01*
X87954819Y-36952380D02*
X87907200Y-37095237D01*
X87907200Y-37095237D02*
X87811961Y-37190475D01*
X87811961Y-37190475D02*
X87716723Y-37238094D01*
X87716723Y-37238094D02*
X87526247Y-37285713D01*
X87526247Y-37285713D02*
X87383390Y-37285713D01*
X87383390Y-37285713D02*
X87192914Y-37238094D01*
X87192914Y-37238094D02*
X87097676Y-37190475D01*
X87097676Y-37190475D02*
X87002438Y-37095237D01*
X87002438Y-37095237D02*
X86954819Y-36952380D01*
X86954819Y-36952380D02*
X86954819Y-36857142D01*
X86954819Y-36857142D02*
X87002438Y-36714285D01*
X87002438Y-36714285D02*
X87050057Y-36666666D01*
X86954819Y-35761904D02*
X86954819Y-36238094D01*
X86954819Y-36238094D02*
X87431009Y-36285713D01*
X87431009Y-36285713D02*
X87383390Y-36238094D01*
X87383390Y-36238094D02*
X87335771Y-36142856D01*
X87335771Y-36142856D02*
X87335771Y-35904761D01*
X87335771Y-35904761D02*
X87383390Y-35809523D01*
X87383390Y-35809523D02*
X87431009Y-35761904D01*
X87431009Y-35761904D02*
X87526247Y-35714285D01*
X87526247Y-35714285D02*
X87764342Y-35714285D01*
X87764342Y-35714285D02*
X87859580Y-35761904D01*
X87859580Y-35761904D02*
X87907200Y-35809523D01*
X87907200Y-35809523D02*
X87954819Y-35904761D01*
X87954819Y-35904761D02*
X87954819Y-36142856D01*
X87954819Y-36142856D02*
X87907200Y-36238094D01*
X87907200Y-36238094D02*
X87859580Y-36285713D01*
X31033333Y-61859580D02*
X30985714Y-61907200D01*
X30985714Y-61907200D02*
X30842857Y-61954819D01*
X30842857Y-61954819D02*
X30747619Y-61954819D01*
X30747619Y-61954819D02*
X30604762Y-61907200D01*
X30604762Y-61907200D02*
X30509524Y-61811961D01*
X30509524Y-61811961D02*
X30461905Y-61716723D01*
X30461905Y-61716723D02*
X30414286Y-61526247D01*
X30414286Y-61526247D02*
X30414286Y-61383390D01*
X30414286Y-61383390D02*
X30461905Y-61192914D01*
X30461905Y-61192914D02*
X30509524Y-61097676D01*
X30509524Y-61097676D02*
X30604762Y-61002438D01*
X30604762Y-61002438D02*
X30747619Y-60954819D01*
X30747619Y-60954819D02*
X30842857Y-60954819D01*
X30842857Y-60954819D02*
X30985714Y-61002438D01*
X30985714Y-61002438D02*
X31033333Y-61050057D01*
X31366667Y-60954819D02*
X32033333Y-60954819D01*
X32033333Y-60954819D02*
X31604762Y-61954819D01*
X81833333Y-25584819D02*
X81500000Y-25108628D01*
X81261905Y-25584819D02*
X81261905Y-24584819D01*
X81261905Y-24584819D02*
X81642857Y-24584819D01*
X81642857Y-24584819D02*
X81738095Y-24632438D01*
X81738095Y-24632438D02*
X81785714Y-24680057D01*
X81785714Y-24680057D02*
X81833333Y-24775295D01*
X81833333Y-24775295D02*
X81833333Y-24918152D01*
X81833333Y-24918152D02*
X81785714Y-25013390D01*
X81785714Y-25013390D02*
X81738095Y-25061009D01*
X81738095Y-25061009D02*
X81642857Y-25108628D01*
X81642857Y-25108628D02*
X81261905Y-25108628D01*
X82166667Y-24584819D02*
X82833333Y-24584819D01*
X82833333Y-24584819D02*
X82404762Y-25584819D01*
X78954819Y-37142857D02*
X78478628Y-37476190D01*
X78954819Y-37714285D02*
X77954819Y-37714285D01*
X77954819Y-37714285D02*
X77954819Y-37333333D01*
X77954819Y-37333333D02*
X78002438Y-37238095D01*
X78002438Y-37238095D02*
X78050057Y-37190476D01*
X78050057Y-37190476D02*
X78145295Y-37142857D01*
X78145295Y-37142857D02*
X78288152Y-37142857D01*
X78288152Y-37142857D02*
X78383390Y-37190476D01*
X78383390Y-37190476D02*
X78431009Y-37238095D01*
X78431009Y-37238095D02*
X78478628Y-37333333D01*
X78478628Y-37333333D02*
X78478628Y-37714285D01*
X78954819Y-36190476D02*
X78954819Y-36761904D01*
X78954819Y-36476190D02*
X77954819Y-36476190D01*
X77954819Y-36476190D02*
X78097676Y-36571428D01*
X78097676Y-36571428D02*
X78192914Y-36666666D01*
X78192914Y-36666666D02*
X78240533Y-36761904D01*
X77954819Y-35571428D02*
X77954819Y-35476190D01*
X77954819Y-35476190D02*
X78002438Y-35380952D01*
X78002438Y-35380952D02*
X78050057Y-35333333D01*
X78050057Y-35333333D02*
X78145295Y-35285714D01*
X78145295Y-35285714D02*
X78335771Y-35238095D01*
X78335771Y-35238095D02*
X78573866Y-35238095D01*
X78573866Y-35238095D02*
X78764342Y-35285714D01*
X78764342Y-35285714D02*
X78859580Y-35333333D01*
X78859580Y-35333333D02*
X78907200Y-35380952D01*
X78907200Y-35380952D02*
X78954819Y-35476190D01*
X78954819Y-35476190D02*
X78954819Y-35571428D01*
X78954819Y-35571428D02*
X78907200Y-35666666D01*
X78907200Y-35666666D02*
X78859580Y-35714285D01*
X78859580Y-35714285D02*
X78764342Y-35761904D01*
X78764342Y-35761904D02*
X78573866Y-35809523D01*
X78573866Y-35809523D02*
X78335771Y-35809523D01*
X78335771Y-35809523D02*
X78145295Y-35761904D01*
X78145295Y-35761904D02*
X78050057Y-35714285D01*
X78050057Y-35714285D02*
X78002438Y-35666666D01*
X78002438Y-35666666D02*
X77954819Y-35571428D01*
X71564761Y-48470057D02*
X71469523Y-48422438D01*
X71469523Y-48422438D02*
X71374285Y-48327200D01*
X71374285Y-48327200D02*
X71231428Y-48184342D01*
X71231428Y-48184342D02*
X71136190Y-48136723D01*
X71136190Y-48136723D02*
X71040952Y-48136723D01*
X71088571Y-48374819D02*
X70993333Y-48327200D01*
X70993333Y-48327200D02*
X70898095Y-48231961D01*
X70898095Y-48231961D02*
X70850476Y-48041485D01*
X70850476Y-48041485D02*
X70850476Y-47708152D01*
X70850476Y-47708152D02*
X70898095Y-47517676D01*
X70898095Y-47517676D02*
X70993333Y-47422438D01*
X70993333Y-47422438D02*
X71088571Y-47374819D01*
X71088571Y-47374819D02*
X71279047Y-47374819D01*
X71279047Y-47374819D02*
X71374285Y-47422438D01*
X71374285Y-47422438D02*
X71469523Y-47517676D01*
X71469523Y-47517676D02*
X71517142Y-47708152D01*
X71517142Y-47708152D02*
X71517142Y-48041485D01*
X71517142Y-48041485D02*
X71469523Y-48231961D01*
X71469523Y-48231961D02*
X71374285Y-48327200D01*
X71374285Y-48327200D02*
X71279047Y-48374819D01*
X71279047Y-48374819D02*
X71088571Y-48374819D01*
X71898095Y-47470057D02*
X71945714Y-47422438D01*
X71945714Y-47422438D02*
X72040952Y-47374819D01*
X72040952Y-47374819D02*
X72279047Y-47374819D01*
X72279047Y-47374819D02*
X72374285Y-47422438D01*
X72374285Y-47422438D02*
X72421904Y-47470057D01*
X72421904Y-47470057D02*
X72469523Y-47565295D01*
X72469523Y-47565295D02*
X72469523Y-47660533D01*
X72469523Y-47660533D02*
X72421904Y-47803390D01*
X72421904Y-47803390D02*
X71850476Y-48374819D01*
X71850476Y-48374819D02*
X72469523Y-48374819D01*
D12*
X13238095Y-41867219D02*
X13809523Y-41867219D01*
X13523809Y-42867219D02*
X13523809Y-41867219D01*
X14142857Y-42867219D02*
X14142857Y-41867219D01*
X14142857Y-41867219D02*
X14523809Y-41867219D01*
X14523809Y-41867219D02*
X14619047Y-41914838D01*
X14619047Y-41914838D02*
X14666666Y-41962457D01*
X14666666Y-41962457D02*
X14714285Y-42057695D01*
X14714285Y-42057695D02*
X14714285Y-42200552D01*
X14714285Y-42200552D02*
X14666666Y-42295790D01*
X14666666Y-42295790D02*
X14619047Y-42343409D01*
X14619047Y-42343409D02*
X14523809Y-42391028D01*
X14523809Y-42391028D02*
X14142857Y-42391028D01*
X15047619Y-41867219D02*
X15666666Y-41867219D01*
X15666666Y-41867219D02*
X15333333Y-42248171D01*
X15333333Y-42248171D02*
X15476190Y-42248171D01*
X15476190Y-42248171D02*
X15571428Y-42295790D01*
X15571428Y-42295790D02*
X15619047Y-42343409D01*
X15619047Y-42343409D02*
X15666666Y-42438647D01*
X15666666Y-42438647D02*
X15666666Y-42676742D01*
X15666666Y-42676742D02*
X15619047Y-42771980D01*
X15619047Y-42771980D02*
X15571428Y-42819600D01*
X15571428Y-42819600D02*
X15476190Y-42867219D01*
X15476190Y-42867219D02*
X15190476Y-42867219D01*
X15190476Y-42867219D02*
X15095238Y-42819600D01*
X15095238Y-42819600D02*
X15047619Y-42771980D01*
D11*
X39259580Y-65792857D02*
X39307200Y-65840476D01*
X39307200Y-65840476D02*
X39354819Y-65983333D01*
X39354819Y-65983333D02*
X39354819Y-66078571D01*
X39354819Y-66078571D02*
X39307200Y-66221428D01*
X39307200Y-66221428D02*
X39211961Y-66316666D01*
X39211961Y-66316666D02*
X39116723Y-66364285D01*
X39116723Y-66364285D02*
X38926247Y-66411904D01*
X38926247Y-66411904D02*
X38783390Y-66411904D01*
X38783390Y-66411904D02*
X38592914Y-66364285D01*
X38592914Y-66364285D02*
X38497676Y-66316666D01*
X38497676Y-66316666D02*
X38402438Y-66221428D01*
X38402438Y-66221428D02*
X38354819Y-66078571D01*
X38354819Y-66078571D02*
X38354819Y-65983333D01*
X38354819Y-65983333D02*
X38402438Y-65840476D01*
X38402438Y-65840476D02*
X38450057Y-65792857D01*
X39354819Y-64840476D02*
X39354819Y-65411904D01*
X39354819Y-65126190D02*
X38354819Y-65126190D01*
X38354819Y-65126190D02*
X38497676Y-65221428D01*
X38497676Y-65221428D02*
X38592914Y-65316666D01*
X38592914Y-65316666D02*
X38640533Y-65411904D01*
X38354819Y-64507142D02*
X38354819Y-63888095D01*
X38354819Y-63888095D02*
X38735771Y-64221428D01*
X38735771Y-64221428D02*
X38735771Y-64078571D01*
X38735771Y-64078571D02*
X38783390Y-63983333D01*
X38783390Y-63983333D02*
X38831009Y-63935714D01*
X38831009Y-63935714D02*
X38926247Y-63888095D01*
X38926247Y-63888095D02*
X39164342Y-63888095D01*
X39164342Y-63888095D02*
X39259580Y-63935714D01*
X39259580Y-63935714D02*
X39307200Y-63983333D01*
X39307200Y-63983333D02*
X39354819Y-64078571D01*
X39354819Y-64078571D02*
X39354819Y-64364285D01*
X39354819Y-64364285D02*
X39307200Y-64459523D01*
X39307200Y-64459523D02*
X39259580Y-64507142D01*
X23859580Y-40142857D02*
X23907200Y-40190476D01*
X23907200Y-40190476D02*
X23954819Y-40333333D01*
X23954819Y-40333333D02*
X23954819Y-40428571D01*
X23954819Y-40428571D02*
X23907200Y-40571428D01*
X23907200Y-40571428D02*
X23811961Y-40666666D01*
X23811961Y-40666666D02*
X23716723Y-40714285D01*
X23716723Y-40714285D02*
X23526247Y-40761904D01*
X23526247Y-40761904D02*
X23383390Y-40761904D01*
X23383390Y-40761904D02*
X23192914Y-40714285D01*
X23192914Y-40714285D02*
X23097676Y-40666666D01*
X23097676Y-40666666D02*
X23002438Y-40571428D01*
X23002438Y-40571428D02*
X22954819Y-40428571D01*
X22954819Y-40428571D02*
X22954819Y-40333333D01*
X22954819Y-40333333D02*
X23002438Y-40190476D01*
X23002438Y-40190476D02*
X23050057Y-40142857D01*
X23954819Y-39190476D02*
X23954819Y-39761904D01*
X23954819Y-39476190D02*
X22954819Y-39476190D01*
X22954819Y-39476190D02*
X23097676Y-39571428D01*
X23097676Y-39571428D02*
X23192914Y-39666666D01*
X23192914Y-39666666D02*
X23240533Y-39761904D01*
X23050057Y-38809523D02*
X23002438Y-38761904D01*
X23002438Y-38761904D02*
X22954819Y-38666666D01*
X22954819Y-38666666D02*
X22954819Y-38428571D01*
X22954819Y-38428571D02*
X23002438Y-38333333D01*
X23002438Y-38333333D02*
X23050057Y-38285714D01*
X23050057Y-38285714D02*
X23145295Y-38238095D01*
X23145295Y-38238095D02*
X23240533Y-38238095D01*
X23240533Y-38238095D02*
X23383390Y-38285714D01*
X23383390Y-38285714D02*
X23954819Y-38857142D01*
X23954819Y-38857142D02*
X23954819Y-38238095D01*
X19166666Y-64844819D02*
X19166666Y-65559104D01*
X19166666Y-65559104D02*
X19119047Y-65701961D01*
X19119047Y-65701961D02*
X19023809Y-65797200D01*
X19023809Y-65797200D02*
X18880952Y-65844819D01*
X18880952Y-65844819D02*
X18785714Y-65844819D01*
X19547619Y-64844819D02*
X20166666Y-64844819D01*
X20166666Y-64844819D02*
X19833333Y-65225771D01*
X19833333Y-65225771D02*
X19976190Y-65225771D01*
X19976190Y-65225771D02*
X20071428Y-65273390D01*
X20071428Y-65273390D02*
X20119047Y-65321009D01*
X20119047Y-65321009D02*
X20166666Y-65416247D01*
X20166666Y-65416247D02*
X20166666Y-65654342D01*
X20166666Y-65654342D02*
X20119047Y-65749580D01*
X20119047Y-65749580D02*
X20071428Y-65797200D01*
X20071428Y-65797200D02*
X19976190Y-65844819D01*
X19976190Y-65844819D02*
X19690476Y-65844819D01*
X19690476Y-65844819D02*
X19595238Y-65797200D01*
X19595238Y-65797200D02*
X19547619Y-65749580D01*
X73333333Y-16584819D02*
X73000000Y-16108628D01*
X72761905Y-16584819D02*
X72761905Y-15584819D01*
X72761905Y-15584819D02*
X73142857Y-15584819D01*
X73142857Y-15584819D02*
X73238095Y-15632438D01*
X73238095Y-15632438D02*
X73285714Y-15680057D01*
X73285714Y-15680057D02*
X73333333Y-15775295D01*
X73333333Y-15775295D02*
X73333333Y-15918152D01*
X73333333Y-15918152D02*
X73285714Y-16013390D01*
X73285714Y-16013390D02*
X73238095Y-16061009D01*
X73238095Y-16061009D02*
X73142857Y-16108628D01*
X73142857Y-16108628D02*
X72761905Y-16108628D01*
X74238095Y-15584819D02*
X73761905Y-15584819D01*
X73761905Y-15584819D02*
X73714286Y-16061009D01*
X73714286Y-16061009D02*
X73761905Y-16013390D01*
X73761905Y-16013390D02*
X73857143Y-15965771D01*
X73857143Y-15965771D02*
X74095238Y-15965771D01*
X74095238Y-15965771D02*
X74190476Y-16013390D01*
X74190476Y-16013390D02*
X74238095Y-16061009D01*
X74238095Y-16061009D02*
X74285714Y-16156247D01*
X74285714Y-16156247D02*
X74285714Y-16394342D01*
X74285714Y-16394342D02*
X74238095Y-16489580D01*
X74238095Y-16489580D02*
X74190476Y-16537200D01*
X74190476Y-16537200D02*
X74095238Y-16584819D01*
X74095238Y-16584819D02*
X73857143Y-16584819D01*
X73857143Y-16584819D02*
X73761905Y-16537200D01*
X73761905Y-16537200D02*
X73714286Y-16489580D01*
X51523333Y-66454819D02*
X51190000Y-65978628D01*
X50951905Y-66454819D02*
X50951905Y-65454819D01*
X50951905Y-65454819D02*
X51332857Y-65454819D01*
X51332857Y-65454819D02*
X51428095Y-65502438D01*
X51428095Y-65502438D02*
X51475714Y-65550057D01*
X51475714Y-65550057D02*
X51523333Y-65645295D01*
X51523333Y-65645295D02*
X51523333Y-65788152D01*
X51523333Y-65788152D02*
X51475714Y-65883390D01*
X51475714Y-65883390D02*
X51428095Y-65931009D01*
X51428095Y-65931009D02*
X51332857Y-65978628D01*
X51332857Y-65978628D02*
X50951905Y-65978628D01*
X52380476Y-65454819D02*
X52190000Y-65454819D01*
X52190000Y-65454819D02*
X52094762Y-65502438D01*
X52094762Y-65502438D02*
X52047143Y-65550057D01*
X52047143Y-65550057D02*
X51951905Y-65692914D01*
X51951905Y-65692914D02*
X51904286Y-65883390D01*
X51904286Y-65883390D02*
X51904286Y-66264342D01*
X51904286Y-66264342D02*
X51951905Y-66359580D01*
X51951905Y-66359580D02*
X51999524Y-66407200D01*
X51999524Y-66407200D02*
X52094762Y-66454819D01*
X52094762Y-66454819D02*
X52285238Y-66454819D01*
X52285238Y-66454819D02*
X52380476Y-66407200D01*
X52380476Y-66407200D02*
X52428095Y-66359580D01*
X52428095Y-66359580D02*
X52475714Y-66264342D01*
X52475714Y-66264342D02*
X52475714Y-66026247D01*
X52475714Y-66026247D02*
X52428095Y-65931009D01*
X52428095Y-65931009D02*
X52380476Y-65883390D01*
X52380476Y-65883390D02*
X52285238Y-65835771D01*
X52285238Y-65835771D02*
X52094762Y-65835771D01*
X52094762Y-65835771D02*
X51999524Y-65883390D01*
X51999524Y-65883390D02*
X51951905Y-65931009D01*
X51951905Y-65931009D02*
X51904286Y-66026247D01*
D12*
X83738095Y-59367219D02*
X84309523Y-59367219D01*
X84023809Y-60367219D02*
X84023809Y-59367219D01*
X84642857Y-60367219D02*
X84642857Y-59367219D01*
X84642857Y-59367219D02*
X85023809Y-59367219D01*
X85023809Y-59367219D02*
X85119047Y-59414838D01*
X85119047Y-59414838D02*
X85166666Y-59462457D01*
X85166666Y-59462457D02*
X85214285Y-59557695D01*
X85214285Y-59557695D02*
X85214285Y-59700552D01*
X85214285Y-59700552D02*
X85166666Y-59795790D01*
X85166666Y-59795790D02*
X85119047Y-59843409D01*
X85119047Y-59843409D02*
X85023809Y-59891028D01*
X85023809Y-59891028D02*
X84642857Y-59891028D01*
X86166666Y-60367219D02*
X85595238Y-60367219D01*
X85880952Y-60367219D02*
X85880952Y-59367219D01*
X85880952Y-59367219D02*
X85785714Y-59510076D01*
X85785714Y-59510076D02*
X85690476Y-59605314D01*
X85690476Y-59605314D02*
X85595238Y-59652933D01*
D11*
X63814819Y-28610238D02*
X63338628Y-28943571D01*
X63814819Y-29181666D02*
X62814819Y-29181666D01*
X62814819Y-29181666D02*
X62814819Y-28800714D01*
X62814819Y-28800714D02*
X62862438Y-28705476D01*
X62862438Y-28705476D02*
X62910057Y-28657857D01*
X62910057Y-28657857D02*
X63005295Y-28610238D01*
X63005295Y-28610238D02*
X63148152Y-28610238D01*
X63148152Y-28610238D02*
X63243390Y-28657857D01*
X63243390Y-28657857D02*
X63291009Y-28705476D01*
X63291009Y-28705476D02*
X63338628Y-28800714D01*
X63338628Y-28800714D02*
X63338628Y-29181666D01*
X62814819Y-28324523D02*
X63814819Y-27991190D01*
X63814819Y-27991190D02*
X62814819Y-27657857D01*
X62910057Y-27372142D02*
X62862438Y-27324523D01*
X62862438Y-27324523D02*
X62814819Y-27229285D01*
X62814819Y-27229285D02*
X62814819Y-26991190D01*
X62814819Y-26991190D02*
X62862438Y-26895952D01*
X62862438Y-26895952D02*
X62910057Y-26848333D01*
X62910057Y-26848333D02*
X63005295Y-26800714D01*
X63005295Y-26800714D02*
X63100533Y-26800714D01*
X63100533Y-26800714D02*
X63243390Y-26848333D01*
X63243390Y-26848333D02*
X63814819Y-27419761D01*
X63814819Y-27419761D02*
X63814819Y-26800714D01*
X21007142Y-60234819D02*
X20673809Y-59758628D01*
X20435714Y-60234819D02*
X20435714Y-59234819D01*
X20435714Y-59234819D02*
X20816666Y-59234819D01*
X20816666Y-59234819D02*
X20911904Y-59282438D01*
X20911904Y-59282438D02*
X20959523Y-59330057D01*
X20959523Y-59330057D02*
X21007142Y-59425295D01*
X21007142Y-59425295D02*
X21007142Y-59568152D01*
X21007142Y-59568152D02*
X20959523Y-59663390D01*
X20959523Y-59663390D02*
X20911904Y-59711009D01*
X20911904Y-59711009D02*
X20816666Y-59758628D01*
X20816666Y-59758628D02*
X20435714Y-59758628D01*
X21959523Y-60234819D02*
X21388095Y-60234819D01*
X21673809Y-60234819D02*
X21673809Y-59234819D01*
X21673809Y-59234819D02*
X21578571Y-59377676D01*
X21578571Y-59377676D02*
X21483333Y-59472914D01*
X21483333Y-59472914D02*
X21388095Y-59520533D01*
X22816666Y-59234819D02*
X22626190Y-59234819D01*
X22626190Y-59234819D02*
X22530952Y-59282438D01*
X22530952Y-59282438D02*
X22483333Y-59330057D01*
X22483333Y-59330057D02*
X22388095Y-59472914D01*
X22388095Y-59472914D02*
X22340476Y-59663390D01*
X22340476Y-59663390D02*
X22340476Y-60044342D01*
X22340476Y-60044342D02*
X22388095Y-60139580D01*
X22388095Y-60139580D02*
X22435714Y-60187200D01*
X22435714Y-60187200D02*
X22530952Y-60234819D01*
X22530952Y-60234819D02*
X22721428Y-60234819D01*
X22721428Y-60234819D02*
X22816666Y-60187200D01*
X22816666Y-60187200D02*
X22864285Y-60139580D01*
X22864285Y-60139580D02*
X22911904Y-60044342D01*
X22911904Y-60044342D02*
X22911904Y-59806247D01*
X22911904Y-59806247D02*
X22864285Y-59711009D01*
X22864285Y-59711009D02*
X22816666Y-59663390D01*
X22816666Y-59663390D02*
X22721428Y-59615771D01*
X22721428Y-59615771D02*
X22530952Y-59615771D01*
X22530952Y-59615771D02*
X22435714Y-59663390D01*
X22435714Y-59663390D02*
X22388095Y-59711009D01*
X22388095Y-59711009D02*
X22340476Y-59806247D01*
X74833333Y-38359580D02*
X74785714Y-38407200D01*
X74785714Y-38407200D02*
X74642857Y-38454819D01*
X74642857Y-38454819D02*
X74547619Y-38454819D01*
X74547619Y-38454819D02*
X74404762Y-38407200D01*
X74404762Y-38407200D02*
X74309524Y-38311961D01*
X74309524Y-38311961D02*
X74261905Y-38216723D01*
X74261905Y-38216723D02*
X74214286Y-38026247D01*
X74214286Y-38026247D02*
X74214286Y-37883390D01*
X74214286Y-37883390D02*
X74261905Y-37692914D01*
X74261905Y-37692914D02*
X74309524Y-37597676D01*
X74309524Y-37597676D02*
X74404762Y-37502438D01*
X74404762Y-37502438D02*
X74547619Y-37454819D01*
X74547619Y-37454819D02*
X74642857Y-37454819D01*
X74642857Y-37454819D02*
X74785714Y-37502438D01*
X74785714Y-37502438D02*
X74833333Y-37550057D01*
X75404762Y-37883390D02*
X75309524Y-37835771D01*
X75309524Y-37835771D02*
X75261905Y-37788152D01*
X75261905Y-37788152D02*
X75214286Y-37692914D01*
X75214286Y-37692914D02*
X75214286Y-37645295D01*
X75214286Y-37645295D02*
X75261905Y-37550057D01*
X75261905Y-37550057D02*
X75309524Y-37502438D01*
X75309524Y-37502438D02*
X75404762Y-37454819D01*
X75404762Y-37454819D02*
X75595238Y-37454819D01*
X75595238Y-37454819D02*
X75690476Y-37502438D01*
X75690476Y-37502438D02*
X75738095Y-37550057D01*
X75738095Y-37550057D02*
X75785714Y-37645295D01*
X75785714Y-37645295D02*
X75785714Y-37692914D01*
X75785714Y-37692914D02*
X75738095Y-37788152D01*
X75738095Y-37788152D02*
X75690476Y-37835771D01*
X75690476Y-37835771D02*
X75595238Y-37883390D01*
X75595238Y-37883390D02*
X75404762Y-37883390D01*
X75404762Y-37883390D02*
X75309524Y-37931009D01*
X75309524Y-37931009D02*
X75261905Y-37978628D01*
X75261905Y-37978628D02*
X75214286Y-38073866D01*
X75214286Y-38073866D02*
X75214286Y-38264342D01*
X75214286Y-38264342D02*
X75261905Y-38359580D01*
X75261905Y-38359580D02*
X75309524Y-38407200D01*
X75309524Y-38407200D02*
X75404762Y-38454819D01*
X75404762Y-38454819D02*
X75595238Y-38454819D01*
X75595238Y-38454819D02*
X75690476Y-38407200D01*
X75690476Y-38407200D02*
X75738095Y-38359580D01*
X75738095Y-38359580D02*
X75785714Y-38264342D01*
X75785714Y-38264342D02*
X75785714Y-38073866D01*
X75785714Y-38073866D02*
X75738095Y-37978628D01*
X75738095Y-37978628D02*
X75690476Y-37931009D01*
X75690476Y-37931009D02*
X75595238Y-37883390D01*
X49833333Y-61824819D02*
X49500000Y-61348628D01*
X49261905Y-61824819D02*
X49261905Y-60824819D01*
X49261905Y-60824819D02*
X49642857Y-60824819D01*
X49642857Y-60824819D02*
X49738095Y-60872438D01*
X49738095Y-60872438D02*
X49785714Y-60920057D01*
X49785714Y-60920057D02*
X49833333Y-61015295D01*
X49833333Y-61015295D02*
X49833333Y-61158152D01*
X49833333Y-61158152D02*
X49785714Y-61253390D01*
X49785714Y-61253390D02*
X49738095Y-61301009D01*
X49738095Y-61301009D02*
X49642857Y-61348628D01*
X49642857Y-61348628D02*
X49261905Y-61348628D01*
X50785714Y-61824819D02*
X50214286Y-61824819D01*
X50500000Y-61824819D02*
X50500000Y-60824819D01*
X50500000Y-60824819D02*
X50404762Y-60967676D01*
X50404762Y-60967676D02*
X50309524Y-61062914D01*
X50309524Y-61062914D02*
X50214286Y-61110533D01*
X17857142Y-58324819D02*
X17523809Y-57848628D01*
X17285714Y-58324819D02*
X17285714Y-57324819D01*
X17285714Y-57324819D02*
X17666666Y-57324819D01*
X17666666Y-57324819D02*
X17761904Y-57372438D01*
X17761904Y-57372438D02*
X17809523Y-57420057D01*
X17809523Y-57420057D02*
X17857142Y-57515295D01*
X17857142Y-57515295D02*
X17857142Y-57658152D01*
X17857142Y-57658152D02*
X17809523Y-57753390D01*
X17809523Y-57753390D02*
X17761904Y-57801009D01*
X17761904Y-57801009D02*
X17666666Y-57848628D01*
X17666666Y-57848628D02*
X17285714Y-57848628D01*
X18809523Y-58324819D02*
X18238095Y-58324819D01*
X18523809Y-58324819D02*
X18523809Y-57324819D01*
X18523809Y-57324819D02*
X18428571Y-57467676D01*
X18428571Y-57467676D02*
X18333333Y-57562914D01*
X18333333Y-57562914D02*
X18238095Y-57610533D01*
X19142857Y-57324819D02*
X19809523Y-57324819D01*
X19809523Y-57324819D02*
X19380952Y-58324819D01*
X49333333Y-56859580D02*
X49285714Y-56907200D01*
X49285714Y-56907200D02*
X49142857Y-56954819D01*
X49142857Y-56954819D02*
X49047619Y-56954819D01*
X49047619Y-56954819D02*
X48904762Y-56907200D01*
X48904762Y-56907200D02*
X48809524Y-56811961D01*
X48809524Y-56811961D02*
X48761905Y-56716723D01*
X48761905Y-56716723D02*
X48714286Y-56526247D01*
X48714286Y-56526247D02*
X48714286Y-56383390D01*
X48714286Y-56383390D02*
X48761905Y-56192914D01*
X48761905Y-56192914D02*
X48809524Y-56097676D01*
X48809524Y-56097676D02*
X48904762Y-56002438D01*
X48904762Y-56002438D02*
X49047619Y-55954819D01*
X49047619Y-55954819D02*
X49142857Y-55954819D01*
X49142857Y-55954819D02*
X49285714Y-56002438D01*
X49285714Y-56002438D02*
X49333333Y-56050057D01*
X50285714Y-56954819D02*
X49714286Y-56954819D01*
X50000000Y-56954819D02*
X50000000Y-55954819D01*
X50000000Y-55954819D02*
X49904762Y-56097676D01*
X49904762Y-56097676D02*
X49809524Y-56192914D01*
X49809524Y-56192914D02*
X49714286Y-56240533D01*
X21454819Y-41666666D02*
X20978628Y-41999999D01*
X21454819Y-42238094D02*
X20454819Y-42238094D01*
X20454819Y-42238094D02*
X20454819Y-41857142D01*
X20454819Y-41857142D02*
X20502438Y-41761904D01*
X20502438Y-41761904D02*
X20550057Y-41714285D01*
X20550057Y-41714285D02*
X20645295Y-41666666D01*
X20645295Y-41666666D02*
X20788152Y-41666666D01*
X20788152Y-41666666D02*
X20883390Y-41714285D01*
X20883390Y-41714285D02*
X20931009Y-41761904D01*
X20931009Y-41761904D02*
X20978628Y-41857142D01*
X20978628Y-41857142D02*
X20978628Y-42238094D01*
X20454819Y-41333332D02*
X20454819Y-40714285D01*
X20454819Y-40714285D02*
X20835771Y-41047618D01*
X20835771Y-41047618D02*
X20835771Y-40904761D01*
X20835771Y-40904761D02*
X20883390Y-40809523D01*
X20883390Y-40809523D02*
X20931009Y-40761904D01*
X20931009Y-40761904D02*
X21026247Y-40714285D01*
X21026247Y-40714285D02*
X21264342Y-40714285D01*
X21264342Y-40714285D02*
X21359580Y-40761904D01*
X21359580Y-40761904D02*
X21407200Y-40809523D01*
X21407200Y-40809523D02*
X21454819Y-40904761D01*
X21454819Y-40904761D02*
X21454819Y-41190475D01*
X21454819Y-41190475D02*
X21407200Y-41285713D01*
X21407200Y-41285713D02*
X21359580Y-41333332D01*
X38954819Y-48642857D02*
X38478628Y-48976190D01*
X38954819Y-49214285D02*
X37954819Y-49214285D01*
X37954819Y-49214285D02*
X37954819Y-48833333D01*
X37954819Y-48833333D02*
X38002438Y-48738095D01*
X38002438Y-48738095D02*
X38050057Y-48690476D01*
X38050057Y-48690476D02*
X38145295Y-48642857D01*
X38145295Y-48642857D02*
X38288152Y-48642857D01*
X38288152Y-48642857D02*
X38383390Y-48690476D01*
X38383390Y-48690476D02*
X38431009Y-48738095D01*
X38431009Y-48738095D02*
X38478628Y-48833333D01*
X38478628Y-48833333D02*
X38478628Y-49214285D01*
X38954819Y-47690476D02*
X38954819Y-48261904D01*
X38954819Y-47976190D02*
X37954819Y-47976190D01*
X37954819Y-47976190D02*
X38097676Y-48071428D01*
X38097676Y-48071428D02*
X38192914Y-48166666D01*
X38192914Y-48166666D02*
X38240533Y-48261904D01*
X37954819Y-47357142D02*
X37954819Y-46738095D01*
X37954819Y-46738095D02*
X38335771Y-47071428D01*
X38335771Y-47071428D02*
X38335771Y-46928571D01*
X38335771Y-46928571D02*
X38383390Y-46833333D01*
X38383390Y-46833333D02*
X38431009Y-46785714D01*
X38431009Y-46785714D02*
X38526247Y-46738095D01*
X38526247Y-46738095D02*
X38764342Y-46738095D01*
X38764342Y-46738095D02*
X38859580Y-46785714D01*
X38859580Y-46785714D02*
X38907200Y-46833333D01*
X38907200Y-46833333D02*
X38954819Y-46928571D01*
X38954819Y-46928571D02*
X38954819Y-47214285D01*
X38954819Y-47214285D02*
X38907200Y-47309523D01*
X38907200Y-47309523D02*
X38859580Y-47357142D01*
X24857142Y-70359580D02*
X24809523Y-70407200D01*
X24809523Y-70407200D02*
X24666666Y-70454819D01*
X24666666Y-70454819D02*
X24571428Y-70454819D01*
X24571428Y-70454819D02*
X24428571Y-70407200D01*
X24428571Y-70407200D02*
X24333333Y-70311961D01*
X24333333Y-70311961D02*
X24285714Y-70216723D01*
X24285714Y-70216723D02*
X24238095Y-70026247D01*
X24238095Y-70026247D02*
X24238095Y-69883390D01*
X24238095Y-69883390D02*
X24285714Y-69692914D01*
X24285714Y-69692914D02*
X24333333Y-69597676D01*
X24333333Y-69597676D02*
X24428571Y-69502438D01*
X24428571Y-69502438D02*
X24571428Y-69454819D01*
X24571428Y-69454819D02*
X24666666Y-69454819D01*
X24666666Y-69454819D02*
X24809523Y-69502438D01*
X24809523Y-69502438D02*
X24857142Y-69550057D01*
X25809523Y-70454819D02*
X25238095Y-70454819D01*
X25523809Y-70454819D02*
X25523809Y-69454819D01*
X25523809Y-69454819D02*
X25428571Y-69597676D01*
X25428571Y-69597676D02*
X25333333Y-69692914D01*
X25333333Y-69692914D02*
X25238095Y-69740533D01*
X26714285Y-69454819D02*
X26238095Y-69454819D01*
X26238095Y-69454819D02*
X26190476Y-69931009D01*
X26190476Y-69931009D02*
X26238095Y-69883390D01*
X26238095Y-69883390D02*
X26333333Y-69835771D01*
X26333333Y-69835771D02*
X26571428Y-69835771D01*
X26571428Y-69835771D02*
X26666666Y-69883390D01*
X26666666Y-69883390D02*
X26714285Y-69931009D01*
X26714285Y-69931009D02*
X26761904Y-70026247D01*
X26761904Y-70026247D02*
X26761904Y-70264342D01*
X26761904Y-70264342D02*
X26714285Y-70359580D01*
X26714285Y-70359580D02*
X26666666Y-70407200D01*
X26666666Y-70407200D02*
X26571428Y-70454819D01*
X26571428Y-70454819D02*
X26333333Y-70454819D01*
X26333333Y-70454819D02*
X26238095Y-70407200D01*
X26238095Y-70407200D02*
X26190476Y-70359580D01*
X54609580Y-55916666D02*
X54657200Y-55964285D01*
X54657200Y-55964285D02*
X54704819Y-56107142D01*
X54704819Y-56107142D02*
X54704819Y-56202380D01*
X54704819Y-56202380D02*
X54657200Y-56345237D01*
X54657200Y-56345237D02*
X54561961Y-56440475D01*
X54561961Y-56440475D02*
X54466723Y-56488094D01*
X54466723Y-56488094D02*
X54276247Y-56535713D01*
X54276247Y-56535713D02*
X54133390Y-56535713D01*
X54133390Y-56535713D02*
X53942914Y-56488094D01*
X53942914Y-56488094D02*
X53847676Y-56440475D01*
X53847676Y-56440475D02*
X53752438Y-56345237D01*
X53752438Y-56345237D02*
X53704819Y-56202380D01*
X53704819Y-56202380D02*
X53704819Y-56107142D01*
X53704819Y-56107142D02*
X53752438Y-55964285D01*
X53752438Y-55964285D02*
X53800057Y-55916666D01*
X53704819Y-55059523D02*
X53704819Y-55249999D01*
X53704819Y-55249999D02*
X53752438Y-55345237D01*
X53752438Y-55345237D02*
X53800057Y-55392856D01*
X53800057Y-55392856D02*
X53942914Y-55488094D01*
X53942914Y-55488094D02*
X54133390Y-55535713D01*
X54133390Y-55535713D02*
X54514342Y-55535713D01*
X54514342Y-55535713D02*
X54609580Y-55488094D01*
X54609580Y-55488094D02*
X54657200Y-55440475D01*
X54657200Y-55440475D02*
X54704819Y-55345237D01*
X54704819Y-55345237D02*
X54704819Y-55154761D01*
X54704819Y-55154761D02*
X54657200Y-55059523D01*
X54657200Y-55059523D02*
X54609580Y-55011904D01*
X54609580Y-55011904D02*
X54514342Y-54964285D01*
X54514342Y-54964285D02*
X54276247Y-54964285D01*
X54276247Y-54964285D02*
X54181009Y-55011904D01*
X54181009Y-55011904D02*
X54133390Y-55059523D01*
X54133390Y-55059523D02*
X54085771Y-55154761D01*
X54085771Y-55154761D02*
X54085771Y-55345237D01*
X54085771Y-55345237D02*
X54133390Y-55440475D01*
X54133390Y-55440475D02*
X54181009Y-55488094D01*
X54181009Y-55488094D02*
X54276247Y-55535713D01*
X58359580Y-46642857D02*
X58407200Y-46690476D01*
X58407200Y-46690476D02*
X58454819Y-46833333D01*
X58454819Y-46833333D02*
X58454819Y-46928571D01*
X58454819Y-46928571D02*
X58407200Y-47071428D01*
X58407200Y-47071428D02*
X58311961Y-47166666D01*
X58311961Y-47166666D02*
X58216723Y-47214285D01*
X58216723Y-47214285D02*
X58026247Y-47261904D01*
X58026247Y-47261904D02*
X57883390Y-47261904D01*
X57883390Y-47261904D02*
X57692914Y-47214285D01*
X57692914Y-47214285D02*
X57597676Y-47166666D01*
X57597676Y-47166666D02*
X57502438Y-47071428D01*
X57502438Y-47071428D02*
X57454819Y-46928571D01*
X57454819Y-46928571D02*
X57454819Y-46833333D01*
X57454819Y-46833333D02*
X57502438Y-46690476D01*
X57502438Y-46690476D02*
X57550057Y-46642857D01*
X58454819Y-45690476D02*
X58454819Y-46261904D01*
X58454819Y-45976190D02*
X57454819Y-45976190D01*
X57454819Y-45976190D02*
X57597676Y-46071428D01*
X57597676Y-46071428D02*
X57692914Y-46166666D01*
X57692914Y-46166666D02*
X57740533Y-46261904D01*
X58454819Y-44738095D02*
X58454819Y-45309523D01*
X58454819Y-45023809D02*
X57454819Y-45023809D01*
X57454819Y-45023809D02*
X57597676Y-45119047D01*
X57597676Y-45119047D02*
X57692914Y-45214285D01*
X57692914Y-45214285D02*
X57740533Y-45309523D01*
X74109580Y-68916666D02*
X74157200Y-68964285D01*
X74157200Y-68964285D02*
X74204819Y-69107142D01*
X74204819Y-69107142D02*
X74204819Y-69202380D01*
X74204819Y-69202380D02*
X74157200Y-69345237D01*
X74157200Y-69345237D02*
X74061961Y-69440475D01*
X74061961Y-69440475D02*
X73966723Y-69488094D01*
X73966723Y-69488094D02*
X73776247Y-69535713D01*
X73776247Y-69535713D02*
X73633390Y-69535713D01*
X73633390Y-69535713D02*
X73442914Y-69488094D01*
X73442914Y-69488094D02*
X73347676Y-69440475D01*
X73347676Y-69440475D02*
X73252438Y-69345237D01*
X73252438Y-69345237D02*
X73204819Y-69202380D01*
X73204819Y-69202380D02*
X73204819Y-69107142D01*
X73204819Y-69107142D02*
X73252438Y-68964285D01*
X73252438Y-68964285D02*
X73300057Y-68916666D01*
X73300057Y-68535713D02*
X73252438Y-68488094D01*
X73252438Y-68488094D02*
X73204819Y-68392856D01*
X73204819Y-68392856D02*
X73204819Y-68154761D01*
X73204819Y-68154761D02*
X73252438Y-68059523D01*
X73252438Y-68059523D02*
X73300057Y-68011904D01*
X73300057Y-68011904D02*
X73395295Y-67964285D01*
X73395295Y-67964285D02*
X73490533Y-67964285D01*
X73490533Y-67964285D02*
X73633390Y-68011904D01*
X73633390Y-68011904D02*
X74204819Y-68583332D01*
X74204819Y-68583332D02*
X74204819Y-67964285D01*
X34333333Y-56824819D02*
X34000000Y-56348628D01*
X33761905Y-56824819D02*
X33761905Y-55824819D01*
X33761905Y-55824819D02*
X34142857Y-55824819D01*
X34142857Y-55824819D02*
X34238095Y-55872438D01*
X34238095Y-55872438D02*
X34285714Y-55920057D01*
X34285714Y-55920057D02*
X34333333Y-56015295D01*
X34333333Y-56015295D02*
X34333333Y-56158152D01*
X34333333Y-56158152D02*
X34285714Y-56253390D01*
X34285714Y-56253390D02*
X34238095Y-56301009D01*
X34238095Y-56301009D02*
X34142857Y-56348628D01*
X34142857Y-56348628D02*
X33761905Y-56348628D01*
X34714286Y-55920057D02*
X34761905Y-55872438D01*
X34761905Y-55872438D02*
X34857143Y-55824819D01*
X34857143Y-55824819D02*
X35095238Y-55824819D01*
X35095238Y-55824819D02*
X35190476Y-55872438D01*
X35190476Y-55872438D02*
X35238095Y-55920057D01*
X35238095Y-55920057D02*
X35285714Y-56015295D01*
X35285714Y-56015295D02*
X35285714Y-56110533D01*
X35285714Y-56110533D02*
X35238095Y-56253390D01*
X35238095Y-56253390D02*
X34666667Y-56824819D01*
X34666667Y-56824819D02*
X35285714Y-56824819D01*
X55857142Y-32584819D02*
X55523809Y-32108628D01*
X55285714Y-32584819D02*
X55285714Y-31584819D01*
X55285714Y-31584819D02*
X55666666Y-31584819D01*
X55666666Y-31584819D02*
X55761904Y-31632438D01*
X55761904Y-31632438D02*
X55809523Y-31680057D01*
X55809523Y-31680057D02*
X55857142Y-31775295D01*
X55857142Y-31775295D02*
X55857142Y-31918152D01*
X55857142Y-31918152D02*
X55809523Y-32013390D01*
X55809523Y-32013390D02*
X55761904Y-32061009D01*
X55761904Y-32061009D02*
X55666666Y-32108628D01*
X55666666Y-32108628D02*
X55285714Y-32108628D01*
X56809523Y-32584819D02*
X56238095Y-32584819D01*
X56523809Y-32584819D02*
X56523809Y-31584819D01*
X56523809Y-31584819D02*
X56428571Y-31727676D01*
X56428571Y-31727676D02*
X56333333Y-31822914D01*
X56333333Y-31822914D02*
X56238095Y-31870533D01*
X57666666Y-31918152D02*
X57666666Y-32584819D01*
X57428571Y-31537200D02*
X57190476Y-32251485D01*
X57190476Y-32251485D02*
X57809523Y-32251485D01*
X63584819Y-48452857D02*
X63108628Y-48786190D01*
X63584819Y-49024285D02*
X62584819Y-49024285D01*
X62584819Y-49024285D02*
X62584819Y-48643333D01*
X62584819Y-48643333D02*
X62632438Y-48548095D01*
X62632438Y-48548095D02*
X62680057Y-48500476D01*
X62680057Y-48500476D02*
X62775295Y-48452857D01*
X62775295Y-48452857D02*
X62918152Y-48452857D01*
X62918152Y-48452857D02*
X63013390Y-48500476D01*
X63013390Y-48500476D02*
X63061009Y-48548095D01*
X63061009Y-48548095D02*
X63108628Y-48643333D01*
X63108628Y-48643333D02*
X63108628Y-49024285D01*
X63584819Y-47500476D02*
X63584819Y-48071904D01*
X63584819Y-47786190D02*
X62584819Y-47786190D01*
X62584819Y-47786190D02*
X62727676Y-47881428D01*
X62727676Y-47881428D02*
X62822914Y-47976666D01*
X62822914Y-47976666D02*
X62870533Y-48071904D01*
X62584819Y-46595714D02*
X62584819Y-47071904D01*
X62584819Y-47071904D02*
X63061009Y-47119523D01*
X63061009Y-47119523D02*
X63013390Y-47071904D01*
X63013390Y-47071904D02*
X62965771Y-46976666D01*
X62965771Y-46976666D02*
X62965771Y-46738571D01*
X62965771Y-46738571D02*
X63013390Y-46643333D01*
X63013390Y-46643333D02*
X63061009Y-46595714D01*
X63061009Y-46595714D02*
X63156247Y-46548095D01*
X63156247Y-46548095D02*
X63394342Y-46548095D01*
X63394342Y-46548095D02*
X63489580Y-46595714D01*
X63489580Y-46595714D02*
X63537200Y-46643333D01*
X63537200Y-46643333D02*
X63584819Y-46738571D01*
X63584819Y-46738571D02*
X63584819Y-46976666D01*
X63584819Y-46976666D02*
X63537200Y-47071904D01*
X63537200Y-47071904D02*
X63489580Y-47119523D01*
X45357142Y-32359580D02*
X45309523Y-32407200D01*
X45309523Y-32407200D02*
X45166666Y-32454819D01*
X45166666Y-32454819D02*
X45071428Y-32454819D01*
X45071428Y-32454819D02*
X44928571Y-32407200D01*
X44928571Y-32407200D02*
X44833333Y-32311961D01*
X44833333Y-32311961D02*
X44785714Y-32216723D01*
X44785714Y-32216723D02*
X44738095Y-32026247D01*
X44738095Y-32026247D02*
X44738095Y-31883390D01*
X44738095Y-31883390D02*
X44785714Y-31692914D01*
X44785714Y-31692914D02*
X44833333Y-31597676D01*
X44833333Y-31597676D02*
X44928571Y-31502438D01*
X44928571Y-31502438D02*
X45071428Y-31454819D01*
X45071428Y-31454819D02*
X45166666Y-31454819D01*
X45166666Y-31454819D02*
X45309523Y-31502438D01*
X45309523Y-31502438D02*
X45357142Y-31550057D01*
X46309523Y-32454819D02*
X45738095Y-32454819D01*
X46023809Y-32454819D02*
X46023809Y-31454819D01*
X46023809Y-31454819D02*
X45928571Y-31597676D01*
X45928571Y-31597676D02*
X45833333Y-31692914D01*
X45833333Y-31692914D02*
X45738095Y-31740533D01*
X46928571Y-31454819D02*
X47023809Y-31454819D01*
X47023809Y-31454819D02*
X47119047Y-31502438D01*
X47119047Y-31502438D02*
X47166666Y-31550057D01*
X47166666Y-31550057D02*
X47214285Y-31645295D01*
X47214285Y-31645295D02*
X47261904Y-31835771D01*
X47261904Y-31835771D02*
X47261904Y-32073866D01*
X47261904Y-32073866D02*
X47214285Y-32264342D01*
X47214285Y-32264342D02*
X47166666Y-32359580D01*
X47166666Y-32359580D02*
X47119047Y-32407200D01*
X47119047Y-32407200D02*
X47023809Y-32454819D01*
X47023809Y-32454819D02*
X46928571Y-32454819D01*
X46928571Y-32454819D02*
X46833333Y-32407200D01*
X46833333Y-32407200D02*
X46785714Y-32359580D01*
X46785714Y-32359580D02*
X46738095Y-32264342D01*
X46738095Y-32264342D02*
X46690476Y-32073866D01*
X46690476Y-32073866D02*
X46690476Y-31835771D01*
X46690476Y-31835771D02*
X46738095Y-31645295D01*
X46738095Y-31645295D02*
X46785714Y-31550057D01*
X46785714Y-31550057D02*
X46833333Y-31502438D01*
X46833333Y-31502438D02*
X46928571Y-31454819D01*
X61584819Y-58666666D02*
X61108628Y-58999999D01*
X61584819Y-59238094D02*
X60584819Y-59238094D01*
X60584819Y-59238094D02*
X60584819Y-58857142D01*
X60584819Y-58857142D02*
X60632438Y-58761904D01*
X60632438Y-58761904D02*
X60680057Y-58714285D01*
X60680057Y-58714285D02*
X60775295Y-58666666D01*
X60775295Y-58666666D02*
X60918152Y-58666666D01*
X60918152Y-58666666D02*
X61013390Y-58714285D01*
X61013390Y-58714285D02*
X61061009Y-58761904D01*
X61061009Y-58761904D02*
X61108628Y-58857142D01*
X61108628Y-58857142D02*
X61108628Y-59238094D01*
X61584819Y-58190475D02*
X61584819Y-57999999D01*
X61584819Y-57999999D02*
X61537200Y-57904761D01*
X61537200Y-57904761D02*
X61489580Y-57857142D01*
X61489580Y-57857142D02*
X61346723Y-57761904D01*
X61346723Y-57761904D02*
X61156247Y-57714285D01*
X61156247Y-57714285D02*
X60775295Y-57714285D01*
X60775295Y-57714285D02*
X60680057Y-57761904D01*
X60680057Y-57761904D02*
X60632438Y-57809523D01*
X60632438Y-57809523D02*
X60584819Y-57904761D01*
X60584819Y-57904761D02*
X60584819Y-58095237D01*
X60584819Y-58095237D02*
X60632438Y-58190475D01*
X60632438Y-58190475D02*
X60680057Y-58238094D01*
X60680057Y-58238094D02*
X60775295Y-58285713D01*
X60775295Y-58285713D02*
X61013390Y-58285713D01*
X61013390Y-58285713D02*
X61108628Y-58238094D01*
X61108628Y-58238094D02*
X61156247Y-58190475D01*
X61156247Y-58190475D02*
X61203866Y-58095237D01*
X61203866Y-58095237D02*
X61203866Y-57904761D01*
X61203866Y-57904761D02*
X61156247Y-57809523D01*
X61156247Y-57809523D02*
X61108628Y-57761904D01*
X61108628Y-57761904D02*
X61013390Y-57714285D01*
D12*
X83738095Y-49367219D02*
X84309523Y-49367219D01*
X84023809Y-50367219D02*
X84023809Y-49367219D01*
X84642857Y-50367219D02*
X84642857Y-49367219D01*
X84642857Y-49367219D02*
X85023809Y-49367219D01*
X85023809Y-49367219D02*
X85119047Y-49414838D01*
X85119047Y-49414838D02*
X85166666Y-49462457D01*
X85166666Y-49462457D02*
X85214285Y-49557695D01*
X85214285Y-49557695D02*
X85214285Y-49700552D01*
X85214285Y-49700552D02*
X85166666Y-49795790D01*
X85166666Y-49795790D02*
X85119047Y-49843409D01*
X85119047Y-49843409D02*
X85023809Y-49891028D01*
X85023809Y-49891028D02*
X84642857Y-49891028D01*
X85595238Y-49462457D02*
X85642857Y-49414838D01*
X85642857Y-49414838D02*
X85738095Y-49367219D01*
X85738095Y-49367219D02*
X85976190Y-49367219D01*
X85976190Y-49367219D02*
X86071428Y-49414838D01*
X86071428Y-49414838D02*
X86119047Y-49462457D01*
X86119047Y-49462457D02*
X86166666Y-49557695D01*
X86166666Y-49557695D02*
X86166666Y-49652933D01*
X86166666Y-49652933D02*
X86119047Y-49795790D01*
X86119047Y-49795790D02*
X85547619Y-50367219D01*
X85547619Y-50367219D02*
X86166666Y-50367219D01*
D11*
X72333333Y-43359580D02*
X72285714Y-43407200D01*
X72285714Y-43407200D02*
X72142857Y-43454819D01*
X72142857Y-43454819D02*
X72047619Y-43454819D01*
X72047619Y-43454819D02*
X71904762Y-43407200D01*
X71904762Y-43407200D02*
X71809524Y-43311961D01*
X71809524Y-43311961D02*
X71761905Y-43216723D01*
X71761905Y-43216723D02*
X71714286Y-43026247D01*
X71714286Y-43026247D02*
X71714286Y-42883390D01*
X71714286Y-42883390D02*
X71761905Y-42692914D01*
X71761905Y-42692914D02*
X71809524Y-42597676D01*
X71809524Y-42597676D02*
X71904762Y-42502438D01*
X71904762Y-42502438D02*
X72047619Y-42454819D01*
X72047619Y-42454819D02*
X72142857Y-42454819D01*
X72142857Y-42454819D02*
X72285714Y-42502438D01*
X72285714Y-42502438D02*
X72333333Y-42550057D01*
X73190476Y-42788152D02*
X73190476Y-43454819D01*
X72952381Y-42407200D02*
X72714286Y-43121485D01*
X72714286Y-43121485D02*
X73333333Y-43121485D01*
X83734819Y-57168094D02*
X82734819Y-57168094D01*
X82734819Y-57168094D02*
X82734819Y-56929999D01*
X82734819Y-56929999D02*
X82782438Y-56787142D01*
X82782438Y-56787142D02*
X82877676Y-56691904D01*
X82877676Y-56691904D02*
X82972914Y-56644285D01*
X82972914Y-56644285D02*
X83163390Y-56596666D01*
X83163390Y-56596666D02*
X83306247Y-56596666D01*
X83306247Y-56596666D02*
X83496723Y-56644285D01*
X83496723Y-56644285D02*
X83591961Y-56691904D01*
X83591961Y-56691904D02*
X83687200Y-56787142D01*
X83687200Y-56787142D02*
X83734819Y-56929999D01*
X83734819Y-56929999D02*
X83734819Y-57168094D01*
X82830057Y-56215713D02*
X82782438Y-56168094D01*
X82782438Y-56168094D02*
X82734819Y-56072856D01*
X82734819Y-56072856D02*
X82734819Y-55834761D01*
X82734819Y-55834761D02*
X82782438Y-55739523D01*
X82782438Y-55739523D02*
X82830057Y-55691904D01*
X82830057Y-55691904D02*
X82925295Y-55644285D01*
X82925295Y-55644285D02*
X83020533Y-55644285D01*
X83020533Y-55644285D02*
X83163390Y-55691904D01*
X83163390Y-55691904D02*
X83734819Y-56263332D01*
X83734819Y-56263332D02*
X83734819Y-55644285D01*
X83414819Y-52881904D02*
X82414819Y-52881904D01*
X83414819Y-52310476D02*
X82843390Y-52739047D01*
X82414819Y-52310476D02*
X82986247Y-52881904D01*
X17857142Y-49084819D02*
X17523809Y-48608628D01*
X17285714Y-49084819D02*
X17285714Y-48084819D01*
X17285714Y-48084819D02*
X17666666Y-48084819D01*
X17666666Y-48084819D02*
X17761904Y-48132438D01*
X17761904Y-48132438D02*
X17809523Y-48180057D01*
X17809523Y-48180057D02*
X17857142Y-48275295D01*
X17857142Y-48275295D02*
X17857142Y-48418152D01*
X17857142Y-48418152D02*
X17809523Y-48513390D01*
X17809523Y-48513390D02*
X17761904Y-48561009D01*
X17761904Y-48561009D02*
X17666666Y-48608628D01*
X17666666Y-48608628D02*
X17285714Y-48608628D01*
X18809523Y-49084819D02*
X18238095Y-49084819D01*
X18523809Y-49084819D02*
X18523809Y-48084819D01*
X18523809Y-48084819D02*
X18428571Y-48227676D01*
X18428571Y-48227676D02*
X18333333Y-48322914D01*
X18333333Y-48322914D02*
X18238095Y-48370533D01*
X19380952Y-48513390D02*
X19285714Y-48465771D01*
X19285714Y-48465771D02*
X19238095Y-48418152D01*
X19238095Y-48418152D02*
X19190476Y-48322914D01*
X19190476Y-48322914D02*
X19190476Y-48275295D01*
X19190476Y-48275295D02*
X19238095Y-48180057D01*
X19238095Y-48180057D02*
X19285714Y-48132438D01*
X19285714Y-48132438D02*
X19380952Y-48084819D01*
X19380952Y-48084819D02*
X19571428Y-48084819D01*
X19571428Y-48084819D02*
X19666666Y-48132438D01*
X19666666Y-48132438D02*
X19714285Y-48180057D01*
X19714285Y-48180057D02*
X19761904Y-48275295D01*
X19761904Y-48275295D02*
X19761904Y-48322914D01*
X19761904Y-48322914D02*
X19714285Y-48418152D01*
X19714285Y-48418152D02*
X19666666Y-48465771D01*
X19666666Y-48465771D02*
X19571428Y-48513390D01*
X19571428Y-48513390D02*
X19380952Y-48513390D01*
X19380952Y-48513390D02*
X19285714Y-48561009D01*
X19285714Y-48561009D02*
X19238095Y-48608628D01*
X19238095Y-48608628D02*
X19190476Y-48703866D01*
X19190476Y-48703866D02*
X19190476Y-48894342D01*
X19190476Y-48894342D02*
X19238095Y-48989580D01*
X19238095Y-48989580D02*
X19285714Y-49037200D01*
X19285714Y-49037200D02*
X19380952Y-49084819D01*
X19380952Y-49084819D02*
X19571428Y-49084819D01*
X19571428Y-49084819D02*
X19666666Y-49037200D01*
X19666666Y-49037200D02*
X19714285Y-48989580D01*
X19714285Y-48989580D02*
X19761904Y-48894342D01*
X19761904Y-48894342D02*
X19761904Y-48703866D01*
X19761904Y-48703866D02*
X19714285Y-48608628D01*
X19714285Y-48608628D02*
X19666666Y-48561009D01*
X19666666Y-48561009D02*
X19571428Y-48513390D01*
X85666666Y-65344819D02*
X85666666Y-66059104D01*
X85666666Y-66059104D02*
X85619047Y-66201961D01*
X85619047Y-66201961D02*
X85523809Y-66297200D01*
X85523809Y-66297200D02*
X85380952Y-66344819D01*
X85380952Y-66344819D02*
X85285714Y-66344819D01*
X86571428Y-65678152D02*
X86571428Y-66344819D01*
X86333333Y-65297200D02*
X86095238Y-66011485D01*
X86095238Y-66011485D02*
X86714285Y-66011485D01*
X75334819Y-57238094D02*
X74334819Y-57238094D01*
X74334819Y-57238094D02*
X74334819Y-56999999D01*
X74334819Y-56999999D02*
X74382438Y-56857142D01*
X74382438Y-56857142D02*
X74477676Y-56761904D01*
X74477676Y-56761904D02*
X74572914Y-56714285D01*
X74572914Y-56714285D02*
X74763390Y-56666666D01*
X74763390Y-56666666D02*
X74906247Y-56666666D01*
X74906247Y-56666666D02*
X75096723Y-56714285D01*
X75096723Y-56714285D02*
X75191961Y-56761904D01*
X75191961Y-56761904D02*
X75287200Y-56857142D01*
X75287200Y-56857142D02*
X75334819Y-56999999D01*
X75334819Y-56999999D02*
X75334819Y-57238094D01*
X75334819Y-55714285D02*
X75334819Y-56285713D01*
X75334819Y-55999999D02*
X74334819Y-55999999D01*
X74334819Y-55999999D02*
X74477676Y-56095237D01*
X74477676Y-56095237D02*
X74572914Y-56190475D01*
X74572914Y-56190475D02*
X74620533Y-56285713D01*
X75654819Y-60571904D02*
X74654819Y-60571904D01*
X75654819Y-60000476D02*
X75083390Y-60429047D01*
X74654819Y-60000476D02*
X75226247Y-60571904D01*
D13*
%TO.C,D4*%
X48940000Y-17264000D02*
X48940000Y-17420000D01*
X48940000Y-19580000D02*
X48940000Y-19736000D01*
X48940000Y-17264484D02*
G75*
G02*
X52171437Y-17420000I1560000J-1235516D01*
G01*
X49459039Y-17420000D02*
G75*
G02*
X51540961Y-17420000I1040961J-1080000D01*
G01*
X51540961Y-19580000D02*
G75*
G02*
X49459039Y-19580000I-1040961J1080000D01*
G01*
X52171437Y-19580000D02*
G75*
G02*
X48940000Y-19735516I-1671437J1080000D01*
G01*
%TO.C,RV3*%
X45620000Y-49845000D02*
X45620000Y-45125000D01*
X45630000Y-41315000D02*
X45630000Y-38255000D01*
X46810000Y-49845000D02*
X45630000Y-49845000D01*
X49710000Y-49845000D02*
X49180000Y-49845000D01*
X52160000Y-49845000D02*
X51330000Y-49845000D01*
X55370000Y-38255000D02*
X45630000Y-38255000D01*
X55370000Y-41315000D02*
X55370000Y-38255000D01*
X55370000Y-49845000D02*
X53880000Y-49845000D01*
X55370000Y-49845000D02*
X55370000Y-45125000D01*
%TO.C,TP5*%
X15050000Y-58050000D02*
X16950000Y-58050000D01*
X15050000Y-59950000D02*
X15050000Y-58050000D01*
X16950000Y-58050000D02*
X16950000Y-59950000D01*
X16950000Y-59950000D02*
X15050000Y-59950000D01*
%TO.C,C9*%
X42380000Y-28130000D02*
X49620000Y-28130000D01*
X42380000Y-30870000D02*
X42380000Y-28130000D01*
X49620000Y-28130000D02*
X49620000Y-30870000D01*
X49620000Y-30870000D02*
X42380000Y-30870000D01*
%TO.C,D3*%
X41500000Y-60260000D02*
X41500000Y-61280000D01*
X41500000Y-67740000D02*
X41500000Y-66720000D01*
X42970000Y-62060000D02*
X40030000Y-62060000D01*
X42970000Y-62180000D02*
X40030000Y-62180000D01*
X42970000Y-62300000D02*
X40030000Y-62300000D01*
X42970000Y-61280000D02*
X40030000Y-61280000D01*
X40030000Y-66720000D01*
X42970000Y-66720000D01*
X42970000Y-61280000D01*
%TO.C,J5*%
X47390000Y-67390000D02*
X48500000Y-67390000D01*
X47390000Y-68500000D02*
X47390000Y-67390000D01*
X47390000Y-69500000D02*
X47390000Y-69610000D01*
X47390000Y-69500000D02*
X49610000Y-69500000D01*
X47390000Y-69610000D02*
X49610000Y-69610000D01*
X49610000Y-69500000D02*
X49610000Y-69610000D01*
%TO.C,TP4*%
X30050000Y-68050000D02*
X31950000Y-68050000D01*
X30050000Y-69950000D02*
X30050000Y-68050000D01*
X31950000Y-68050000D02*
X31950000Y-69950000D01*
X31950000Y-69950000D02*
X30050000Y-69950000D01*
%TO.C,RV1*%
X25620000Y-33845000D02*
X25620000Y-29125000D01*
X25630000Y-25315000D02*
X25630000Y-22255000D01*
X26810000Y-33845000D02*
X25630000Y-33845000D01*
X29710000Y-33845000D02*
X29180000Y-33845000D01*
X32160000Y-33845000D02*
X31330000Y-33845000D01*
X35370000Y-22255000D02*
X25630000Y-22255000D01*
X35370000Y-25315000D02*
X35370000Y-22255000D01*
X35370000Y-33845000D02*
X33880000Y-33845000D01*
X35370000Y-33845000D02*
X35370000Y-29125000D01*
%TO.C,R4*%
X79730000Y-20630000D02*
X86270000Y-20630000D01*
X79730000Y-20960000D02*
X79730000Y-20630000D01*
X79730000Y-23040000D02*
X79730000Y-23370000D01*
X79730000Y-23370000D02*
X86270000Y-23370000D01*
X86270000Y-20630000D02*
X86270000Y-20960000D01*
X86270000Y-23370000D02*
X86270000Y-23040000D01*
%TO.C,J2*%
X14390000Y-66390000D02*
X15500000Y-66390000D01*
X14390000Y-67500000D02*
X14390000Y-66390000D01*
X14390000Y-68500000D02*
X14390000Y-68610000D01*
X14390000Y-68500000D02*
X16610000Y-68500000D01*
X14390000Y-68610000D02*
X16610000Y-68610000D01*
X16610000Y-68500000D02*
X16610000Y-68610000D01*
%TO.C,R11*%
X62420000Y-38630000D02*
X62420000Y-38960000D01*
X62420000Y-41370000D02*
X62420000Y-41040000D01*
X68960000Y-38630000D02*
X62420000Y-38630000D01*
X68960000Y-38960000D02*
X68960000Y-38630000D01*
X68960000Y-41040000D02*
X68960000Y-41370000D01*
X68960000Y-41370000D02*
X62420000Y-41370000D01*
%TO.C,R19*%
X55690000Y-18500000D02*
X56380000Y-18500000D01*
X66310000Y-18500000D02*
X65620000Y-18500000D01*
X65620000Y-20220000D02*
X56380000Y-20220000D01*
X56380000Y-16780000D01*
X65620000Y-16780000D01*
X65620000Y-20220000D01*
%TO.C,Q1*%
X68590000Y-59970000D02*
X72190000Y-59970000D01*
X68551522Y-59958478D02*
G75*
G02*
X70390000Y-55519999I1838478J1838478D01*
G01*
X70390000Y-55520000D02*
G75*
G02*
X72228478Y-59958478I0J-2600000D01*
G01*
%TO.C,U1*%
X28350000Y-40360000D02*
X28350000Y-50640000D01*
X28350000Y-50640000D02*
X33650000Y-50640000D01*
X30000000Y-40360000D02*
X28350000Y-40360000D01*
X33650000Y-40360000D02*
X32000000Y-40360000D01*
X33650000Y-50640000D02*
X33650000Y-40360000D01*
X25860000Y-40300000D02*
X36140000Y-40300000D01*
X36140000Y-50700000D01*
X25860000Y-50700000D01*
X25860000Y-40300000D01*
X32000000Y-40360000D02*
G75*
G02*
X30000000Y-40360000I-1000000J0D01*
G01*
%TO.C,R12*%
X53420000Y-28130000D02*
X59960000Y-28130000D01*
X53420000Y-28460000D02*
X53420000Y-28130000D01*
X53420000Y-30540000D02*
X53420000Y-30870000D01*
X53420000Y-30870000D02*
X59960000Y-30870000D01*
X59960000Y-28130000D02*
X59960000Y-28460000D01*
X59960000Y-30870000D02*
X59960000Y-30540000D01*
%TO.C,C14*%
X23855113Y-54283000D02*
X23855113Y-53717000D01*
X23895113Y-54517000D02*
X23895113Y-53483000D01*
X23935113Y-54677000D02*
X23935113Y-53323000D01*
X23975113Y-54805000D02*
X23975113Y-53195000D01*
X24015113Y-54914000D02*
X24015113Y-53086000D01*
X24055113Y-55011000D02*
X24055113Y-52989000D01*
X24095113Y-55098000D02*
X24095113Y-52902000D01*
X24135113Y-55177000D02*
X24135113Y-52823000D01*
X24175113Y-52960000D02*
X24175113Y-52749000D01*
X24175113Y-55251000D02*
X24175113Y-55040000D01*
X24215113Y-52960000D02*
X24215113Y-52681000D01*
X24215113Y-55319000D02*
X24215113Y-55040000D01*
X24255113Y-52960000D02*
X24255113Y-52617000D01*
X24255113Y-55383000D02*
X24255113Y-55040000D01*
X24295113Y-52960000D02*
X24295113Y-52557000D01*
X24295113Y-55443000D02*
X24295113Y-55040000D01*
X24335113Y-52960000D02*
X24335113Y-52501000D01*
X24335113Y-55499000D02*
X24335113Y-55040000D01*
X24375113Y-52960000D02*
X24375113Y-52447000D01*
X24375113Y-55553000D02*
X24375113Y-55040000D01*
X24415113Y-52960000D02*
X24415113Y-52396000D01*
X24415113Y-55604000D02*
X24415113Y-55040000D01*
X24455113Y-52960000D02*
X24455113Y-52348000D01*
X24455113Y-55652000D02*
X24455113Y-55040000D01*
X24495113Y-52960000D02*
X24495113Y-52301000D01*
X24495113Y-55699000D02*
X24495113Y-55040000D01*
X24535113Y-52960000D02*
X24535113Y-52257000D01*
X24535113Y-55743000D02*
X24535113Y-55040000D01*
X24575113Y-52960000D02*
X24575113Y-52215000D01*
X24575113Y-55785000D02*
X24575113Y-55040000D01*
X24615113Y-52960000D02*
X24615113Y-52175000D01*
X24615113Y-55825000D02*
X24615113Y-55040000D01*
X24655113Y-52960000D02*
X24655113Y-52136000D01*
X24655113Y-55864000D02*
X24655113Y-55040000D01*
X24695113Y-52960000D02*
X24695113Y-52099000D01*
X24695113Y-55901000D02*
X24695113Y-55040000D01*
X24735113Y-52960000D02*
X24735113Y-52064000D01*
X24735113Y-55936000D02*
X24735113Y-55040000D01*
X24775113Y-52960000D02*
X24775113Y-52030000D01*
X24775113Y-55970000D02*
X24775113Y-55040000D01*
X24815113Y-52960000D02*
X24815113Y-51997000D01*
X24815113Y-56003000D02*
X24815113Y-55040000D01*
X24855113Y-52960000D02*
X24855113Y-51965000D01*
X24855113Y-56035000D02*
X24855113Y-55040000D01*
X24895113Y-52960000D02*
X24895113Y-51935000D01*
X24895113Y-56065000D02*
X24895113Y-55040000D01*
X24935113Y-52960000D02*
X24935113Y-51906000D01*
X24935113Y-56094000D02*
X24935113Y-55040000D01*
X24975113Y-52960000D02*
X24975113Y-51878000D01*
X24975113Y-56122000D02*
X24975113Y-55040000D01*
X25015113Y-52960000D02*
X25015113Y-51851000D01*
X25015113Y-56149000D02*
X25015113Y-55040000D01*
X25055113Y-52960000D02*
X25055113Y-51825000D01*
X25055113Y-56175000D02*
X25055113Y-55040000D01*
X25095113Y-52960000D02*
X25095113Y-51801000D01*
X25095113Y-56199000D02*
X25095113Y-55040000D01*
X25135113Y-52960000D02*
X25135113Y-51777000D01*
X25135113Y-56223000D02*
X25135113Y-55040000D01*
X25175113Y-52960000D02*
X25175113Y-51754000D01*
X25175113Y-56246000D02*
X25175113Y-55040000D01*
X25215113Y-52960000D02*
X25215113Y-51732000D01*
X25215113Y-56268000D02*
X25215113Y-55040000D01*
X25255113Y-52960000D02*
X25255113Y-51711000D01*
X25255113Y-56289000D02*
X25255113Y-55040000D01*
X25295113Y-52960000D02*
X25295113Y-51691000D01*
X25295113Y-56309000D02*
X25295113Y-55040000D01*
X25335113Y-52960000D02*
X25335113Y-51671000D01*
X25335113Y-56329000D02*
X25335113Y-55040000D01*
X25375113Y-52960000D02*
X25375113Y-51653000D01*
X25375113Y-56347000D02*
X25375113Y-55040000D01*
X25415113Y-52960000D02*
X25415113Y-51635000D01*
X25415113Y-56365000D02*
X25415113Y-55040000D01*
X25455113Y-52960000D02*
X25455113Y-51618000D01*
X25455113Y-56382000D02*
X25455113Y-55040000D01*
X25495113Y-52960000D02*
X25495113Y-51602000D01*
X25495113Y-56398000D02*
X25495113Y-55040000D01*
X25535113Y-52960000D02*
X25535113Y-51587000D01*
X25535113Y-56413000D02*
X25535113Y-55040000D01*
X25575113Y-52960000D02*
X25575113Y-51572000D01*
X25575113Y-56428000D02*
X25575113Y-55040000D01*
X25615113Y-52960000D02*
X25615113Y-51558000D01*
X25615113Y-56442000D02*
X25615113Y-55040000D01*
X25655113Y-52960000D02*
X25655113Y-51545000D01*
X25655113Y-56455000D02*
X25655113Y-55040000D01*
X25695113Y-52960000D02*
X25695113Y-51533000D01*
X25695113Y-56467000D02*
X25695113Y-55040000D01*
X25735113Y-52960000D02*
X25735113Y-51521000D01*
X25735113Y-56479000D02*
X25735113Y-55040000D01*
X25775113Y-52960000D02*
X25775113Y-51510000D01*
X25775113Y-56490000D02*
X25775113Y-55040000D01*
X25815113Y-52960000D02*
X25815113Y-51499000D01*
X25815113Y-56501000D02*
X25815113Y-55040000D01*
X25855113Y-52960000D02*
X25855113Y-51490000D01*
X25855113Y-56510000D02*
X25855113Y-55040000D01*
X25895113Y-52960000D02*
X25895113Y-51481000D01*
X25895113Y-56519000D02*
X25895113Y-55040000D01*
X25935113Y-52960000D02*
X25935113Y-51472000D01*
X25935113Y-56528000D02*
X25935113Y-55040000D01*
X25975113Y-52960000D02*
X25975113Y-51464000D01*
X25975113Y-56536000D02*
X25975113Y-55040000D01*
X26015113Y-52960000D02*
X26015113Y-51457000D01*
X26015113Y-56543000D02*
X26015113Y-55040000D01*
X26055113Y-52960000D02*
X26055113Y-51451000D01*
X26055113Y-56549000D02*
X26055113Y-55040000D01*
X26095113Y-52960000D02*
X26095113Y-51445000D01*
X26095113Y-56555000D02*
X26095113Y-55040000D01*
X26135113Y-52960000D02*
X26135113Y-51440000D01*
X26135113Y-56560000D02*
X26135113Y-55040000D01*
X26175113Y-52960000D02*
X26175113Y-51435000D01*
X26175113Y-56565000D02*
X26175113Y-55040000D01*
X26215113Y-52960000D02*
X26215113Y-51431000D01*
X26215113Y-56569000D02*
X26215113Y-55040000D01*
X26255113Y-56572000D02*
X26255113Y-51428000D01*
X26295113Y-56575000D02*
X26295113Y-51425000D01*
X26335113Y-56577000D02*
X26335113Y-51423000D01*
X26375113Y-56579000D02*
X26375113Y-51421000D01*
X26415113Y-56580000D02*
X26415113Y-51420000D01*
X26455113Y-56580000D02*
X26455113Y-51420000D01*
X29009888Y-55725000D02*
X29009888Y-55225000D01*
X29259888Y-55475000D02*
X28759888Y-55475000D01*
X29075113Y-54000000D02*
G75*
G02*
X23835113Y-54000000I-2620000J0D01*
G01*
X23835113Y-54000000D02*
G75*
G02*
X29075113Y-54000000I2620000J0D01*
G01*
%TO.C,J1*%
X81390000Y-66890000D02*
X82500000Y-66890000D01*
X81390000Y-68000000D02*
X81390000Y-66890000D01*
X81390000Y-69000000D02*
X81390000Y-69110000D01*
X81390000Y-69000000D02*
X83610000Y-69000000D01*
X81390000Y-69110000D02*
X83610000Y-69110000D01*
X83610000Y-69000000D02*
X83610000Y-69110000D01*
%TO.C,R8*%
X78040000Y-45630000D02*
X78040000Y-45960000D01*
X78040000Y-48370000D02*
X78040000Y-48040000D01*
X84580000Y-45630000D02*
X78040000Y-45630000D01*
X84580000Y-45960000D02*
X84580000Y-45630000D01*
X84580000Y-48040000D02*
X84580000Y-48370000D01*
X84580000Y-48370000D02*
X78040000Y-48370000D01*
%TO.C,C3*%
X69040000Y-62750000D02*
X74280000Y-62750000D01*
X69040000Y-63087000D02*
X69040000Y-62750000D01*
X69040000Y-65490000D02*
X69040000Y-65153000D01*
X74280000Y-62750000D02*
X74280000Y-63087000D01*
X74280000Y-65153000D02*
X74280000Y-65490000D01*
X74280000Y-65490000D02*
X69040000Y-65490000D01*
%TO.C,C5*%
X83630000Y-32880000D02*
X86370000Y-32880000D01*
X83630000Y-40120000D02*
X83630000Y-32880000D01*
X86370000Y-32880000D02*
X86370000Y-40120000D01*
X86370000Y-40120000D02*
X83630000Y-40120000D01*
%TO.C,C7*%
X28880000Y-57630000D02*
X36120000Y-57630000D01*
X28880000Y-60370000D02*
X28880000Y-57630000D01*
X36120000Y-57630000D02*
X36120000Y-60370000D01*
X36120000Y-60370000D02*
X28880000Y-60370000D01*
%TO.C,R7*%
X78730000Y-26130000D02*
X85270000Y-26130000D01*
X78730000Y-26460000D02*
X78730000Y-26130000D01*
X78730000Y-28540000D02*
X78730000Y-28870000D01*
X78730000Y-28870000D02*
X85270000Y-28870000D01*
X85270000Y-26130000D02*
X85270000Y-26460000D01*
X85270000Y-28870000D02*
X85270000Y-28540000D01*
%TO.C,R10*%
X79630000Y-33230000D02*
X79630000Y-39770000D01*
X79630000Y-39770000D02*
X79960000Y-39770000D01*
X79960000Y-33230000D02*
X79630000Y-33230000D01*
X82040000Y-33230000D02*
X82370000Y-33230000D01*
X82370000Y-33230000D02*
X82370000Y-39770000D01*
X82370000Y-39770000D02*
X82040000Y-39770000D01*
%TO.C,Q2*%
X69860000Y-53330000D02*
X73460000Y-53330000D01*
X69821522Y-53318478D02*
G75*
G02*
X71660000Y-48879999I1838478J1838478D01*
G01*
X71660000Y-48880000D02*
G75*
G02*
X73498478Y-53318478I0J-2600000D01*
G01*
%TO.C,TP3*%
X13550000Y-43550000D02*
X15450000Y-43550000D01*
X13550000Y-45450000D02*
X13550000Y-43550000D01*
X15450000Y-43550000D02*
X15450000Y-45450000D01*
X15450000Y-45450000D02*
X13550000Y-45450000D01*
%TO.C,C13*%
X33460000Y-65390000D02*
X31279000Y-65390000D01*
X33460000Y-65430000D02*
X31282000Y-65430000D01*
X33460000Y-65470000D02*
X31286000Y-65470000D01*
X33460000Y-65510000D02*
X31290000Y-65510000D01*
X33460000Y-65550000D02*
X31295000Y-65550000D01*
X33460000Y-65590000D02*
X31300000Y-65590000D01*
X33460000Y-65630000D02*
X31305000Y-65630000D01*
X33460000Y-65670000D02*
X31312000Y-65670000D01*
X33460000Y-65710000D02*
X31318000Y-65710000D01*
X33460000Y-65750000D02*
X31326000Y-65750000D01*
X33460000Y-65790000D02*
X31333000Y-65790000D01*
X33460000Y-65830000D02*
X31341000Y-65830000D01*
X33460000Y-65870000D02*
X31350000Y-65870000D01*
X33460000Y-65910000D02*
X31360000Y-65910000D01*
X33460000Y-65950000D02*
X31369000Y-65950000D01*
X33460000Y-65990000D02*
X31380000Y-65990000D01*
X33460000Y-66030000D02*
X31391000Y-66030000D01*
X33460000Y-66070000D02*
X31402000Y-66070000D01*
X33460000Y-66110000D02*
X31414000Y-66110000D01*
X33460000Y-66150000D02*
X31427000Y-66150000D01*
X33460000Y-66190000D02*
X31440000Y-66190000D01*
X33460000Y-66230000D02*
X31453000Y-66230000D01*
X33460000Y-66270000D02*
X31468000Y-66270000D01*
X33460000Y-66310000D02*
X31483000Y-66310000D01*
X33460000Y-66350000D02*
X31498000Y-66350000D01*
X33460000Y-66390000D02*
X31514000Y-66390000D01*
X33460000Y-66430000D02*
X31531000Y-66430000D01*
X33460000Y-66470000D02*
X31548000Y-66470000D01*
X33460000Y-66510000D02*
X31566000Y-66510000D01*
X33460000Y-66550000D02*
X31585000Y-66550000D01*
X33460000Y-66590000D02*
X31604000Y-66590000D01*
X33460000Y-66630000D02*
X31624000Y-66630000D01*
X33460000Y-66670000D02*
X31645000Y-66670000D01*
X33460000Y-66710000D02*
X31666000Y-66710000D01*
X33460000Y-66750000D02*
X31688000Y-66750000D01*
X33460000Y-66790000D02*
X31711000Y-66790000D01*
X33460000Y-66830000D02*
X31735000Y-66830000D01*
X33460000Y-66870000D02*
X31759000Y-66870000D01*
X33460000Y-66910000D02*
X31784000Y-66910000D01*
X33460000Y-66950000D02*
X31810000Y-66950000D01*
X33460000Y-66990000D02*
X31837000Y-66990000D01*
X33460000Y-67030000D02*
X31864000Y-67030000D01*
X33460000Y-67070000D02*
X31893000Y-67070000D01*
X33460000Y-67110000D02*
X31923000Y-67110000D01*
X33460000Y-67150000D02*
X31953000Y-67150000D01*
X33460000Y-67190000D02*
X31984000Y-67190000D01*
X33460000Y-67230000D02*
X32017000Y-67230000D01*
X33460000Y-67270000D02*
X32050000Y-67270000D01*
X33460000Y-67310000D02*
X32085000Y-67310000D01*
X33460000Y-67350000D02*
X32121000Y-67350000D01*
X33460000Y-67390000D02*
X32158000Y-67390000D01*
X33460000Y-67430000D02*
X32196000Y-67430000D01*
X34902000Y-68390000D02*
X34098000Y-68390000D01*
X35133000Y-68350000D02*
X33867000Y-68350000D01*
X35301000Y-68310000D02*
X33699000Y-68310000D01*
X35439000Y-68270000D02*
X33561000Y-68270000D01*
X35558000Y-68230000D02*
X33442000Y-68230000D01*
X35665000Y-68190000D02*
X33335000Y-68190000D01*
X35761000Y-68150000D02*
X33239000Y-68150000D01*
X35850000Y-68110000D02*
X33150000Y-68110000D01*
X35932000Y-68070000D02*
X33068000Y-68070000D01*
X36009000Y-68030000D02*
X32991000Y-68030000D01*
X36081000Y-67990000D02*
X32919000Y-67990000D01*
X36149000Y-67950000D02*
X32851000Y-67950000D01*
X36214000Y-67910000D02*
X32786000Y-67910000D01*
X36275000Y-67870000D02*
X32725000Y-67870000D01*
X36334000Y-67830000D02*
X32666000Y-67830000D01*
X36339000Y-61649759D02*
X36339000Y-62279759D01*
X36390000Y-67790000D02*
X32610000Y-67790000D01*
X36443000Y-67750000D02*
X32557000Y-67750000D01*
X36495000Y-67710000D02*
X32505000Y-67710000D01*
X36544000Y-67670000D02*
X32456000Y-67670000D01*
X36591000Y-67630000D02*
X32409000Y-67630000D01*
X36637000Y-67590000D02*
X32363000Y-67590000D01*
X36654000Y-61964759D02*
X36024000Y-61964759D01*
X36681000Y-67550000D02*
X32319000Y-67550000D01*
X36723000Y-67510000D02*
X32277000Y-67510000D01*
X36764000Y-67470000D02*
X32236000Y-67470000D01*
X36804000Y-67430000D02*
X35540000Y-67430000D01*
X36842000Y-67390000D02*
X35540000Y-67390000D01*
X36879000Y-67350000D02*
X35540000Y-67350000D01*
X36915000Y-67310000D02*
X35540000Y-67310000D01*
X36950000Y-67270000D02*
X35540000Y-67270000D01*
X36983000Y-67230000D02*
X35540000Y-67230000D01*
X37016000Y-67190000D02*
X35540000Y-67190000D01*
X37047000Y-67150000D02*
X35540000Y-67150000D01*
X37077000Y-67110000D02*
X35540000Y-67110000D01*
X37107000Y-67070000D02*
X35540000Y-67070000D01*
X37136000Y-67030000D02*
X35540000Y-67030000D01*
X37163000Y-66990000D02*
X35540000Y-66990000D01*
X37190000Y-66950000D02*
X35540000Y-66950000D01*
X37216000Y-66910000D02*
X35540000Y-66910000D01*
X37241000Y-66870000D02*
X35540000Y-66870000D01*
X37265000Y-66830000D02*
X35540000Y-66830000D01*
X37289000Y-66790000D02*
X35540000Y-66790000D01*
X37312000Y-66750000D02*
X35540000Y-66750000D01*
X37334000Y-66710000D02*
X35540000Y-66710000D01*
X37355000Y-66670000D02*
X35540000Y-66670000D01*
X37376000Y-66630000D02*
X35540000Y-66630000D01*
X37396000Y-66590000D02*
X35540000Y-66590000D01*
X37415000Y-66550000D02*
X35540000Y-66550000D01*
X37434000Y-66510000D02*
X35540000Y-66510000D01*
X37452000Y-66470000D02*
X35540000Y-66470000D01*
X37469000Y-66430000D02*
X35540000Y-66430000D01*
X37486000Y-66390000D02*
X35540000Y-66390000D01*
X37502000Y-66350000D02*
X35540000Y-66350000D01*
X37517000Y-66310000D02*
X35540000Y-66310000D01*
X37532000Y-66270000D02*
X35540000Y-66270000D01*
X37547000Y-66230000D02*
X35540000Y-66230000D01*
X37560000Y-66190000D02*
X35540000Y-66190000D01*
X37573000Y-66150000D02*
X35540000Y-66150000D01*
X37586000Y-66110000D02*
X35540000Y-66110000D01*
X37598000Y-66070000D02*
X35540000Y-66070000D01*
X37609000Y-66030000D02*
X35540000Y-66030000D01*
X37620000Y-65990000D02*
X35540000Y-65990000D01*
X37631000Y-65950000D02*
X35540000Y-65950000D01*
X37640000Y-65910000D02*
X35540000Y-65910000D01*
X37650000Y-65870000D02*
X35540000Y-65870000D01*
X37659000Y-65830000D02*
X35540000Y-65830000D01*
X37667000Y-65790000D02*
X35540000Y-65790000D01*
X37674000Y-65750000D02*
X35540000Y-65750000D01*
X37682000Y-65710000D02*
X35540000Y-65710000D01*
X37688000Y-65670000D02*
X35540000Y-65670000D01*
X37695000Y-65630000D02*
X35540000Y-65630000D01*
X37700000Y-65590000D02*
X35540000Y-65590000D01*
X37705000Y-65550000D02*
X35540000Y-65550000D01*
X37710000Y-65510000D02*
X35540000Y-65510000D01*
X37714000Y-65470000D02*
X35540000Y-65470000D01*
X37718000Y-65430000D02*
X35540000Y-65430000D01*
X37721000Y-65390000D02*
X35540000Y-65390000D01*
X37724000Y-65350000D02*
X31276000Y-65350000D01*
X37726000Y-65310000D02*
X31274000Y-65310000D01*
X37728000Y-65270000D02*
X31272000Y-65270000D01*
X37729000Y-65230000D02*
X31271000Y-65230000D01*
X37730000Y-65150000D02*
X31270000Y-65150000D01*
X37730000Y-65190000D02*
X31270000Y-65190000D01*
X37770000Y-65150000D02*
G75*
G02*
X31230000Y-65150000I-3270000J0D01*
G01*
X31230000Y-65150000D02*
G75*
G02*
X37770000Y-65150000I3270000J0D01*
G01*
%TO.C,C12*%
X22130000Y-41380000D02*
X24870000Y-41380000D01*
X22130000Y-48620000D02*
X22130000Y-41380000D01*
X24870000Y-41380000D02*
X24870000Y-48620000D01*
X24870000Y-48620000D02*
X22130000Y-48620000D01*
%TO.C,J3*%
X18390000Y-66390000D02*
X19500000Y-66390000D01*
X18390000Y-67500000D02*
X18390000Y-66390000D01*
X18390000Y-68500000D02*
X18390000Y-68610000D01*
X18390000Y-68500000D02*
X20610000Y-68500000D01*
X18390000Y-68610000D02*
X20610000Y-68610000D01*
X20610000Y-68500000D02*
X20610000Y-68610000D01*
%TO.C,R5*%
X70230000Y-17130000D02*
X76770000Y-17130000D01*
X70230000Y-17460000D02*
X70230000Y-17130000D01*
X70230000Y-19540000D02*
X70230000Y-19870000D01*
X70230000Y-19870000D02*
X76770000Y-19870000D01*
X76770000Y-17130000D02*
X76770000Y-17460000D01*
X76770000Y-19870000D02*
X76770000Y-19540000D01*
%TO.C,R6*%
X48920000Y-62130000D02*
X55460000Y-62130000D01*
X48920000Y-62460000D02*
X48920000Y-62130000D01*
X48920000Y-64540000D02*
X48920000Y-64870000D01*
X48920000Y-64870000D02*
X55460000Y-64870000D01*
X55460000Y-62130000D02*
X55460000Y-62460000D01*
X55460000Y-64870000D02*
X55460000Y-64540000D01*
%TO.C,TP1*%
X84050000Y-61050000D02*
X85950000Y-61050000D01*
X84050000Y-62950000D02*
X84050000Y-61050000D01*
X85950000Y-61050000D02*
X85950000Y-62950000D01*
X85950000Y-62950000D02*
X84050000Y-62950000D01*
%TO.C,RV2*%
X65620000Y-33845000D02*
X65620000Y-29125000D01*
X65630000Y-25315000D02*
X65630000Y-22255000D01*
X66810000Y-33845000D02*
X65630000Y-33845000D01*
X69710000Y-33845000D02*
X69180000Y-33845000D01*
X72160000Y-33845000D02*
X71330000Y-33845000D01*
X75370000Y-22255000D02*
X65630000Y-22255000D01*
X75370000Y-25315000D02*
X75370000Y-22255000D01*
X75370000Y-33845000D02*
X73880000Y-33845000D01*
X75370000Y-33845000D02*
X75370000Y-29125000D01*
%TO.C,R16*%
X16340000Y-62500000D02*
X17030000Y-62500000D01*
X26960000Y-62500000D02*
X26270000Y-62500000D01*
X17030000Y-60780000D02*
X26270000Y-60780000D01*
X26270000Y-64220000D01*
X17030000Y-64220000D01*
X17030000Y-60780000D01*
%TO.C,C8*%
X71380000Y-39130000D02*
X78620000Y-39130000D01*
X71380000Y-41870000D02*
X71380000Y-39130000D01*
X78620000Y-39130000D02*
X78620000Y-41870000D01*
X78620000Y-41870000D02*
X71380000Y-41870000D01*
%TO.C,R1*%
X46730000Y-57630000D02*
X46730000Y-57960000D01*
X46730000Y-60370000D02*
X46730000Y-60040000D01*
X53270000Y-57630000D02*
X46730000Y-57630000D01*
X53270000Y-57960000D02*
X53270000Y-57630000D01*
X53270000Y-60040000D02*
X53270000Y-60370000D01*
X53270000Y-60370000D02*
X46730000Y-60370000D01*
%TO.C,R17*%
X15230000Y-54130000D02*
X15230000Y-54460000D01*
X15230000Y-56870000D02*
X15230000Y-56540000D01*
X21770000Y-54130000D02*
X15230000Y-54130000D01*
X21770000Y-54460000D02*
X21770000Y-54130000D01*
X21770000Y-56540000D02*
X21770000Y-56870000D01*
X21770000Y-56870000D02*
X15230000Y-56870000D01*
%TO.C,C1*%
X45880000Y-52630000D02*
X53120000Y-52630000D01*
X45880000Y-55370000D02*
X45880000Y-52630000D01*
X53120000Y-52630000D02*
X53120000Y-55370000D01*
X53120000Y-55370000D02*
X45880000Y-55370000D01*
%TO.C,R3*%
X17130000Y-37730000D02*
X17460000Y-37730000D01*
X17130000Y-44270000D02*
X17130000Y-37730000D01*
X17460000Y-44270000D02*
X17130000Y-44270000D01*
X19540000Y-44270000D02*
X19870000Y-44270000D01*
X19870000Y-37730000D02*
X19540000Y-37730000D01*
X19870000Y-44270000D02*
X19870000Y-37730000D01*
%TO.C,R13*%
X39630000Y-44420000D02*
X39630000Y-50960000D01*
X39630000Y-50960000D02*
X39960000Y-50960000D01*
X39960000Y-44420000D02*
X39630000Y-44420000D01*
X42040000Y-44420000D02*
X42370000Y-44420000D01*
X42370000Y-44420000D02*
X42370000Y-50960000D01*
X42370000Y-50960000D02*
X42040000Y-50960000D01*
%TO.C,C15*%
X21880000Y-66130000D02*
X29120000Y-66130000D01*
X21880000Y-68870000D02*
X21880000Y-66130000D01*
X29120000Y-66130000D02*
X29120000Y-68870000D01*
X29120000Y-68870000D02*
X21880000Y-68870000D01*
%TO.C,C6*%
X55420000Y-55710000D02*
X60580000Y-55710000D01*
X55420000Y-55750000D02*
X60580000Y-55750000D01*
X55421000Y-55670000D02*
X60579000Y-55670000D01*
X55423000Y-55630000D02*
X60577000Y-55630000D01*
X55425000Y-55590000D02*
X60575000Y-55590000D01*
X55428000Y-55550000D02*
X60572000Y-55550000D01*
X55431000Y-55510000D02*
X56960000Y-55510000D01*
X55435000Y-55470000D02*
X56960000Y-55470000D01*
X55440000Y-55430000D02*
X56960000Y-55430000D01*
X55445000Y-55390000D02*
X56960000Y-55390000D01*
X55451000Y-55350000D02*
X56960000Y-55350000D01*
X55457000Y-55310000D02*
X56960000Y-55310000D01*
X55464000Y-55270000D02*
X56960000Y-55270000D01*
X55472000Y-55230000D02*
X56960000Y-55230000D01*
X55481000Y-55190000D02*
X56960000Y-55190000D01*
X55490000Y-55150000D02*
X56960000Y-55150000D01*
X55499000Y-55110000D02*
X56960000Y-55110000D01*
X55510000Y-55070000D02*
X56960000Y-55070000D01*
X55521000Y-55030000D02*
X56960000Y-55030000D01*
X55533000Y-54990000D02*
X56960000Y-54990000D01*
X55545000Y-54950000D02*
X56960000Y-54950000D01*
X55558000Y-54910000D02*
X56960000Y-54910000D01*
X55572000Y-54870000D02*
X56960000Y-54870000D01*
X55587000Y-54830000D02*
X56960000Y-54830000D01*
X55602000Y-54790000D02*
X56960000Y-54790000D01*
X55618000Y-54750000D02*
X56960000Y-54750000D01*
X55635000Y-54710000D02*
X56960000Y-54710000D01*
X55653000Y-54670000D02*
X56960000Y-54670000D01*
X55671000Y-54630000D02*
X56960000Y-54630000D01*
X55691000Y-54590000D02*
X56960000Y-54590000D01*
X55711000Y-54550000D02*
X56960000Y-54550000D01*
X55732000Y-54510000D02*
X56960000Y-54510000D01*
X55754000Y-54470000D02*
X56960000Y-54470000D01*
X55777000Y-54430000D02*
X56960000Y-54430000D01*
X55801000Y-54390000D02*
X56960000Y-54390000D01*
X55825000Y-54350000D02*
X56960000Y-54350000D01*
X55851000Y-54310000D02*
X56960000Y-54310000D01*
X55878000Y-54270000D02*
X56960000Y-54270000D01*
X55906000Y-54230000D02*
X56960000Y-54230000D01*
X55935000Y-54190000D02*
X56960000Y-54190000D01*
X55965000Y-54150000D02*
X56960000Y-54150000D01*
X55997000Y-54110000D02*
X56960000Y-54110000D01*
X56030000Y-54070000D02*
X56960000Y-54070000D01*
X56064000Y-54030000D02*
X56960000Y-54030000D01*
X56099000Y-53990000D02*
X56960000Y-53990000D01*
X56136000Y-53950000D02*
X56960000Y-53950000D01*
X56175000Y-53910000D02*
X56960000Y-53910000D01*
X56215000Y-53870000D02*
X56960000Y-53870000D01*
X56257000Y-53830000D02*
X56960000Y-53830000D01*
X56275000Y-58304775D02*
X56775000Y-58304775D01*
X56301000Y-53790000D02*
X56960000Y-53790000D01*
X56348000Y-53750000D02*
X56960000Y-53750000D01*
X56396000Y-53710000D02*
X56960000Y-53710000D01*
X56447000Y-53670000D02*
X56960000Y-53670000D01*
X56501000Y-53630000D02*
X56960000Y-53630000D01*
X56525000Y-58554775D02*
X56525000Y-58054775D01*
X56557000Y-53590000D02*
X56960000Y-53590000D01*
X56617000Y-53550000D02*
X56960000Y-53550000D01*
X56681000Y-53510000D02*
X56960000Y-53510000D01*
X56749000Y-53470000D02*
X56960000Y-53470000D01*
X56823000Y-53430000D02*
X59177000Y-53430000D01*
X56902000Y-53390000D02*
X59098000Y-53390000D01*
X56989000Y-53350000D02*
X59011000Y-53350000D01*
X57086000Y-53310000D02*
X58914000Y-53310000D01*
X57195000Y-53270000D02*
X58805000Y-53270000D01*
X57323000Y-53230000D02*
X58677000Y-53230000D01*
X57483000Y-53190000D02*
X58517000Y-53190000D01*
X57717000Y-53150000D02*
X58283000Y-53150000D01*
X59040000Y-53470000D02*
X59251000Y-53470000D01*
X59040000Y-53510000D02*
X59319000Y-53510000D01*
X59040000Y-53550000D02*
X59383000Y-53550000D01*
X59040000Y-53590000D02*
X59443000Y-53590000D01*
X59040000Y-53630000D02*
X59499000Y-53630000D01*
X59040000Y-53670000D02*
X59553000Y-53670000D01*
X59040000Y-53710000D02*
X59604000Y-53710000D01*
X59040000Y-53750000D02*
X59652000Y-53750000D01*
X59040000Y-53790000D02*
X59699000Y-53790000D01*
X59040000Y-53830000D02*
X59743000Y-53830000D01*
X59040000Y-53870000D02*
X59785000Y-53870000D01*
X59040000Y-53910000D02*
X59825000Y-53910000D01*
X59040000Y-53950000D02*
X59864000Y-53950000D01*
X59040000Y-53990000D02*
X59901000Y-53990000D01*
X59040000Y-54030000D02*
X59936000Y-54030000D01*
X59040000Y-54070000D02*
X59970000Y-54070000D01*
X59040000Y-54110000D02*
X60003000Y-54110000D01*
X59040000Y-54150000D02*
X60035000Y-54150000D01*
X59040000Y-54190000D02*
X60065000Y-54190000D01*
X59040000Y-54230000D02*
X60094000Y-54230000D01*
X59040000Y-54270000D02*
X60122000Y-54270000D01*
X59040000Y-54310000D02*
X60149000Y-54310000D01*
X59040000Y-54350000D02*
X60175000Y-54350000D01*
X59040000Y-54390000D02*
X60199000Y-54390000D01*
X59040000Y-54430000D02*
X60223000Y-54430000D01*
X59040000Y-54470000D02*
X60246000Y-54470000D01*
X59040000Y-54510000D02*
X60268000Y-54510000D01*
X59040000Y-54550000D02*
X60289000Y-54550000D01*
X59040000Y-54590000D02*
X60309000Y-54590000D01*
X59040000Y-54630000D02*
X60329000Y-54630000D01*
X59040000Y-54670000D02*
X60347000Y-54670000D01*
X59040000Y-54710000D02*
X60365000Y-54710000D01*
X59040000Y-54750000D02*
X60382000Y-54750000D01*
X59040000Y-54790000D02*
X60398000Y-54790000D01*
X59040000Y-54830000D02*
X60413000Y-54830000D01*
X59040000Y-54870000D02*
X60428000Y-54870000D01*
X59040000Y-54910000D02*
X60442000Y-54910000D01*
X59040000Y-54950000D02*
X60455000Y-54950000D01*
X59040000Y-54990000D02*
X60467000Y-54990000D01*
X59040000Y-55030000D02*
X60479000Y-55030000D01*
X59040000Y-55070000D02*
X60490000Y-55070000D01*
X59040000Y-55110000D02*
X60501000Y-55110000D01*
X59040000Y-55150000D02*
X60510000Y-55150000D01*
X59040000Y-55190000D02*
X60519000Y-55190000D01*
X59040000Y-55230000D02*
X60528000Y-55230000D01*
X59040000Y-55270000D02*
X60536000Y-55270000D01*
X59040000Y-55310000D02*
X60543000Y-55310000D01*
X59040000Y-55350000D02*
X60549000Y-55350000D01*
X59040000Y-55390000D02*
X60555000Y-55390000D01*
X59040000Y-55430000D02*
X60560000Y-55430000D01*
X59040000Y-55470000D02*
X60565000Y-55470000D01*
X59040000Y-55510000D02*
X60569000Y-55510000D01*
X60620000Y-55750000D02*
G75*
G02*
X55380000Y-55750000I-2620000J0D01*
G01*
X55380000Y-55750000D02*
G75*
G02*
X60620000Y-55750000I2620000J0D01*
G01*
%TO.C,C11*%
X59130000Y-42380000D02*
X61870000Y-42380000D01*
X59130000Y-49620000D02*
X59130000Y-42380000D01*
X61870000Y-42380000D02*
X61870000Y-49620000D01*
X61870000Y-49620000D02*
X59130000Y-49620000D01*
%TO.C,C2*%
X74920000Y-68710000D02*
X80080000Y-68710000D01*
X74920000Y-68750000D02*
X80080000Y-68750000D01*
X74921000Y-68670000D02*
X80079000Y-68670000D01*
X74923000Y-68630000D02*
X80077000Y-68630000D01*
X74925000Y-68590000D02*
X80075000Y-68590000D01*
X74928000Y-68550000D02*
X80072000Y-68550000D01*
X74931000Y-68510000D02*
X76460000Y-68510000D01*
X74935000Y-68470000D02*
X76460000Y-68470000D01*
X74940000Y-68430000D02*
X76460000Y-68430000D01*
X74945000Y-68390000D02*
X76460000Y-68390000D01*
X74951000Y-68350000D02*
X76460000Y-68350000D01*
X74957000Y-68310000D02*
X76460000Y-68310000D01*
X74964000Y-68270000D02*
X76460000Y-68270000D01*
X74972000Y-68230000D02*
X76460000Y-68230000D01*
X74981000Y-68190000D02*
X76460000Y-68190000D01*
X74990000Y-68150000D02*
X76460000Y-68150000D01*
X74999000Y-68110000D02*
X76460000Y-68110000D01*
X75010000Y-68070000D02*
X76460000Y-68070000D01*
X75021000Y-68030000D02*
X76460000Y-68030000D01*
X75033000Y-67990000D02*
X76460000Y-67990000D01*
X75045000Y-67950000D02*
X76460000Y-67950000D01*
X75058000Y-67910000D02*
X76460000Y-67910000D01*
X75072000Y-67870000D02*
X76460000Y-67870000D01*
X75087000Y-67830000D02*
X76460000Y-67830000D01*
X75102000Y-67790000D02*
X76460000Y-67790000D01*
X75118000Y-67750000D02*
X76460000Y-67750000D01*
X75135000Y-67710000D02*
X76460000Y-67710000D01*
X75153000Y-67670000D02*
X76460000Y-67670000D01*
X75171000Y-67630000D02*
X76460000Y-67630000D01*
X75191000Y-67590000D02*
X76460000Y-67590000D01*
X75211000Y-67550000D02*
X76460000Y-67550000D01*
X75232000Y-67510000D02*
X76460000Y-67510000D01*
X75254000Y-67470000D02*
X76460000Y-67470000D01*
X75277000Y-67430000D02*
X76460000Y-67430000D01*
X75301000Y-67390000D02*
X76460000Y-67390000D01*
X75325000Y-67350000D02*
X76460000Y-67350000D01*
X75351000Y-67310000D02*
X76460000Y-67310000D01*
X75378000Y-67270000D02*
X76460000Y-67270000D01*
X75406000Y-67230000D02*
X76460000Y-67230000D01*
X75435000Y-67190000D02*
X76460000Y-67190000D01*
X75465000Y-67150000D02*
X76460000Y-67150000D01*
X75497000Y-67110000D02*
X76460000Y-67110000D01*
X75530000Y-67070000D02*
X76460000Y-67070000D01*
X75564000Y-67030000D02*
X76460000Y-67030000D01*
X75599000Y-66990000D02*
X76460000Y-66990000D01*
X75636000Y-66950000D02*
X76460000Y-66950000D01*
X75675000Y-66910000D02*
X76460000Y-66910000D01*
X75715000Y-66870000D02*
X76460000Y-66870000D01*
X75757000Y-66830000D02*
X76460000Y-66830000D01*
X75775000Y-71304775D02*
X76275000Y-71304775D01*
X75801000Y-66790000D02*
X76460000Y-66790000D01*
X75848000Y-66750000D02*
X76460000Y-66750000D01*
X75896000Y-66710000D02*
X76460000Y-66710000D01*
X75947000Y-66670000D02*
X76460000Y-66670000D01*
X76001000Y-66630000D02*
X76460000Y-66630000D01*
X76025000Y-71554775D02*
X76025000Y-71054775D01*
X76057000Y-66590000D02*
X76460000Y-66590000D01*
X76117000Y-66550000D02*
X76460000Y-66550000D01*
X76181000Y-66510000D02*
X76460000Y-66510000D01*
X76249000Y-66470000D02*
X76460000Y-66470000D01*
X76323000Y-66430000D02*
X78677000Y-66430000D01*
X76402000Y-66390000D02*
X78598000Y-66390000D01*
X76489000Y-66350000D02*
X78511000Y-66350000D01*
X76586000Y-66310000D02*
X78414000Y-66310000D01*
X76695000Y-66270000D02*
X78305000Y-66270000D01*
X76823000Y-66230000D02*
X78177000Y-66230000D01*
X76983000Y-66190000D02*
X78017000Y-66190000D01*
X77217000Y-66150000D02*
X77783000Y-66150000D01*
X78540000Y-66470000D02*
X78751000Y-66470000D01*
X78540000Y-66510000D02*
X78819000Y-66510000D01*
X78540000Y-66550000D02*
X78883000Y-66550000D01*
X78540000Y-66590000D02*
X78943000Y-66590000D01*
X78540000Y-66630000D02*
X78999000Y-66630000D01*
X78540000Y-66670000D02*
X79053000Y-66670000D01*
X78540000Y-66710000D02*
X79104000Y-66710000D01*
X78540000Y-66750000D02*
X79152000Y-66750000D01*
X78540000Y-66790000D02*
X79199000Y-66790000D01*
X78540000Y-66830000D02*
X79243000Y-66830000D01*
X78540000Y-66870000D02*
X79285000Y-66870000D01*
X78540000Y-66910000D02*
X79325000Y-66910000D01*
X78540000Y-66950000D02*
X79364000Y-66950000D01*
X78540000Y-66990000D02*
X79401000Y-66990000D01*
X78540000Y-67030000D02*
X79436000Y-67030000D01*
X78540000Y-67070000D02*
X79470000Y-67070000D01*
X78540000Y-67110000D02*
X79503000Y-67110000D01*
X78540000Y-67150000D02*
X79535000Y-67150000D01*
X78540000Y-67190000D02*
X79565000Y-67190000D01*
X78540000Y-67230000D02*
X79594000Y-67230000D01*
X78540000Y-67270000D02*
X79622000Y-67270000D01*
X78540000Y-67310000D02*
X79649000Y-67310000D01*
X78540000Y-67350000D02*
X79675000Y-67350000D01*
X78540000Y-67390000D02*
X79699000Y-67390000D01*
X78540000Y-67430000D02*
X79723000Y-67430000D01*
X78540000Y-67470000D02*
X79746000Y-67470000D01*
X78540000Y-67510000D02*
X79768000Y-67510000D01*
X78540000Y-67550000D02*
X79789000Y-67550000D01*
X78540000Y-67590000D02*
X79809000Y-67590000D01*
X78540000Y-67630000D02*
X79829000Y-67630000D01*
X78540000Y-67670000D02*
X79847000Y-67670000D01*
X78540000Y-67710000D02*
X79865000Y-67710000D01*
X78540000Y-67750000D02*
X79882000Y-67750000D01*
X78540000Y-67790000D02*
X79898000Y-67790000D01*
X78540000Y-67830000D02*
X79913000Y-67830000D01*
X78540000Y-67870000D02*
X79928000Y-67870000D01*
X78540000Y-67910000D02*
X79942000Y-67910000D01*
X78540000Y-67950000D02*
X79955000Y-67950000D01*
X78540000Y-67990000D02*
X79967000Y-67990000D01*
X78540000Y-68030000D02*
X79979000Y-68030000D01*
X78540000Y-68070000D02*
X79990000Y-68070000D01*
X78540000Y-68110000D02*
X80001000Y-68110000D01*
X78540000Y-68150000D02*
X80010000Y-68150000D01*
X78540000Y-68190000D02*
X80019000Y-68190000D01*
X78540000Y-68230000D02*
X80028000Y-68230000D01*
X78540000Y-68270000D02*
X80036000Y-68270000D01*
X78540000Y-68310000D02*
X80043000Y-68310000D01*
X78540000Y-68350000D02*
X80049000Y-68350000D01*
X78540000Y-68390000D02*
X80055000Y-68390000D01*
X78540000Y-68430000D02*
X80060000Y-68430000D01*
X78540000Y-68470000D02*
X80065000Y-68470000D01*
X78540000Y-68510000D02*
X80069000Y-68510000D01*
X80120000Y-68750000D02*
G75*
G02*
X74880000Y-68750000I-2620000J0D01*
G01*
X74880000Y-68750000D02*
G75*
G02*
X80120000Y-68750000I2620000J0D01*
G01*
%TO.C,R2*%
X31230000Y-52630000D02*
X31230000Y-52960000D01*
X31230000Y-55370000D02*
X31230000Y-55040000D01*
X37770000Y-52630000D02*
X31230000Y-52630000D01*
X37770000Y-52960000D02*
X37770000Y-52630000D01*
X37770000Y-55040000D02*
X37770000Y-55370000D01*
X37770000Y-55370000D02*
X31230000Y-55370000D01*
%TO.C,R14*%
X53230000Y-33130000D02*
X59770000Y-33130000D01*
X53230000Y-33460000D02*
X53230000Y-33130000D01*
X53230000Y-35540000D02*
X53230000Y-35870000D01*
X53230000Y-35870000D02*
X59770000Y-35870000D01*
X59770000Y-33130000D02*
X59770000Y-33460000D01*
X59770000Y-35870000D02*
X59770000Y-35540000D01*
%TO.C,R15*%
X64130000Y-44540000D02*
X64460000Y-44540000D01*
X64130000Y-51080000D02*
X64130000Y-44540000D01*
X64460000Y-51080000D02*
X64130000Y-51080000D01*
X66540000Y-51080000D02*
X66870000Y-51080000D01*
X66870000Y-44540000D02*
X66540000Y-44540000D01*
X66870000Y-51080000D02*
X66870000Y-44540000D01*
%TO.C,C10*%
X42380000Y-33130000D02*
X49620000Y-33130000D01*
X42380000Y-35870000D02*
X42380000Y-33130000D01*
X49620000Y-33130000D02*
X49620000Y-35870000D01*
X49620000Y-35870000D02*
X42380000Y-35870000D01*
%TO.C,R9*%
X62130000Y-55230000D02*
X62460000Y-55230000D01*
X62130000Y-61770000D02*
X62130000Y-55230000D01*
X62460000Y-61770000D02*
X62130000Y-61770000D01*
X64540000Y-61770000D02*
X64870000Y-61770000D01*
X64870000Y-55230000D02*
X64540000Y-55230000D01*
X64870000Y-61770000D02*
X64870000Y-55230000D01*
%TO.C,TP2*%
X84050000Y-51050000D02*
X85950000Y-51050000D01*
X84050000Y-52950000D02*
X84050000Y-51050000D01*
X85950000Y-51050000D02*
X85950000Y-52950000D01*
X85950000Y-52950000D02*
X84050000Y-52950000D01*
%TO.C,C4*%
X68880000Y-44130000D02*
X76120000Y-44130000D01*
X68880000Y-46870000D02*
X68880000Y-44130000D01*
X76120000Y-44130000D02*
X76120000Y-46870000D01*
X76120000Y-46870000D02*
X68880000Y-46870000D01*
%TO.C,D2*%
X81160000Y-53660000D02*
X81160000Y-54310000D01*
X81160000Y-59200000D02*
X81160000Y-58550000D01*
X82280000Y-54910000D02*
X80040000Y-54910000D01*
X82280000Y-55030000D02*
X80040000Y-55030000D01*
X82280000Y-55150000D02*
X80040000Y-55150000D01*
X82280000Y-54310000D02*
X80040000Y-54310000D01*
X80040000Y-58550000D01*
X82280000Y-58550000D01*
X82280000Y-54310000D01*
%TO.C,R18*%
X15230000Y-49630000D02*
X21770000Y-49630000D01*
X15230000Y-49960000D02*
X15230000Y-49630000D01*
X15230000Y-52040000D02*
X15230000Y-52370000D01*
X15230000Y-52370000D02*
X21770000Y-52370000D01*
X21770000Y-49630000D02*
X21770000Y-49960000D01*
X21770000Y-52370000D02*
X21770000Y-52040000D01*
%TO.C,J4*%
X84890000Y-66890000D02*
X86000000Y-66890000D01*
X84890000Y-68000000D02*
X84890000Y-66890000D01*
X84890000Y-69000000D02*
X84890000Y-69110000D01*
X84890000Y-69000000D02*
X87110000Y-69000000D01*
X84890000Y-69110000D02*
X87110000Y-69110000D01*
X87110000Y-69000000D02*
X87110000Y-69110000D01*
%TO.C,D1*%
X75880000Y-57780000D02*
X78120000Y-57780000D01*
X75880000Y-57900000D02*
X78120000Y-57900000D01*
X75880000Y-58020000D02*
X78120000Y-58020000D01*
X77000000Y-53730000D02*
X77000000Y-54380000D01*
X77000000Y-59270000D02*
X77000000Y-58620000D01*
X75880000Y-58620000D02*
X78120000Y-58620000D01*
X78120000Y-54380000D01*
X75880000Y-54380000D01*
X75880000Y-58620000D01*
%TD*%
M02*
