%TF.GenerationSoftware,KiCad,Pcbnew,9.0.6*%
%TF.CreationDate,2025-12-29T20:46:52-03:00*%
%TF.ProjectId,122025,31323230-3235-42e6-9b69-6361645f7063,A*%
%TF.SameCoordinates,Original*%
%TF.FileFunction,Copper,L1,Top*%
%TF.FilePolarity,Positive*%
%FSLAX46Y46*%
G04 Gerber Fmt 4.6, Leading zero omitted, Abs format (unit mm)*
G04 Created by KiCad (PCBNEW 9.0.6) date 2025-12-29 20:46:52*
%MOMM*%
%LPD*%
G01*
G04 APERTURE LIST*
G04 Aperture macros list*
%AMRoundRect*
0 Rectangle with rounded corners*
0 $1 Rounding radius*
0 $2 $3 $4 $5 $6 $7 $8 $9 X,Y pos of 4 corners*
0 Add a 4 corners polygon primitive as box body*
4,1,4,$2,$3,$4,$5,$6,$7,$8,$9,$2,$3,0*
0 Add four circle primitives for the rounded corners*
1,1,$1+$1,$2,$3*
1,1,$1+$1,$4,$5*
1,1,$1+$1,$6,$7*
1,1,$1+$1,$8,$9*
0 Add four rect primitives between the rounded corners*
20,1,$1+$1,$2,$3,$4,$5,0*
20,1,$1+$1,$4,$5,$6,$7,0*
20,1,$1+$1,$6,$7,$8,$9,0*
20,1,$1+$1,$8,$9,$2,$3,0*%
G04 Aperture macros list end*
%TA.AperFunction,ComponentPad*%
%ADD10R,1.800000X1.800000*%
%TD*%
%TA.AperFunction,ComponentPad*%
%ADD11C,1.800000*%
%TD*%
%TA.AperFunction,ComponentPad*%
%ADD12O,2.720000X3.240000*%
%TD*%
%TA.AperFunction,SMDPad,CuDef*%
%ADD13R,1.500000X1.500000*%
%TD*%
%TA.AperFunction,ComponentPad*%
%ADD14C,1.600000*%
%TD*%
%TA.AperFunction,ComponentPad*%
%ADD15RoundRect,0.249999X-0.850001X0.850001X-0.850001X-0.850001X0.850001X-0.850001X0.850001X0.850001X0*%
%TD*%
%TA.AperFunction,ComponentPad*%
%ADD16C,2.200000*%
%TD*%
%TA.AperFunction,ComponentPad*%
%ADD17R,1.350000X1.350000*%
%TD*%
%TA.AperFunction,ComponentPad*%
%ADD18R,1.050000X1.500000*%
%TD*%
%TA.AperFunction,ComponentPad*%
%ADD19O,1.050000X1.500000*%
%TD*%
%TA.AperFunction,ComponentPad*%
%ADD20RoundRect,0.250000X-0.550000X-0.550000X0.550000X-0.550000X0.550000X0.550000X-0.550000X0.550000X0*%
%TD*%
%TA.AperFunction,ComponentPad*%
%ADD21RoundRect,0.250000X0.550000X0.550000X-0.550000X0.550000X-0.550000X-0.550000X0.550000X-0.550000X0*%
%TD*%
%TA.AperFunction,ComponentPad*%
%ADD22RoundRect,0.250000X-0.550000X0.550000X-0.550000X-0.550000X0.550000X-0.550000X0.550000X0.550000X0*%
%TD*%
%TA.AperFunction,ComponentPad*%
%ADD23RoundRect,0.250000X0.550000X-0.550000X0.550000X0.550000X-0.550000X0.550000X-0.550000X-0.550000X0*%
%TD*%
%TA.AperFunction,ViaPad*%
%ADD24C,0.600000*%
%TD*%
G04 APERTURE END LIST*
D10*
%TO.P,D4,1,K*%
%TO.N,/LED GND*%
X49230000Y-18500000D03*
D11*
%TO.P,D4,2,A*%
%TO.N,Net-(D4-A)*%
X51770000Y-18500000D03*
%TD*%
D12*
%TO.P,RV3,*%
%TO.N,*%
X45700000Y-43225000D03*
X55300000Y-43225000D03*
D10*
%TO.P,RV3,1,1*%
%TO.N,GND*%
X48000000Y-50725000D03*
D11*
%TO.P,RV3,2,2*%
%TO.N,/Out*%
X50500000Y-50725000D03*
%TO.P,RV3,3,3*%
%TO.N,Net-(C11-Pad2)*%
X53000000Y-50725000D03*
%TD*%
D13*
%TO.P,TP5,1,1*%
%TO.N,/Vref*%
X16000000Y-59000000D03*
%TD*%
D14*
%TO.P,C9,1*%
%TO.N,Net-(U1B--)*%
X48500000Y-29500000D03*
%TO.P,C9,2*%
%TO.N,Net-(C10-Pad1)*%
X43500000Y-29500000D03*
%TD*%
D15*
%TO.P,D3,1,K*%
%TO.N,/V+*%
X41500000Y-58920000D03*
D16*
%TO.P,D3,2,A*%
%TO.N,GND*%
X41500000Y-69080000D03*
%TD*%
D17*
%TO.P,J5,1,Pin_1*%
%TO.N,GND*%
X48500000Y-68500000D03*
%TD*%
D13*
%TO.P,TP4,1,1*%
%TO.N,/V+*%
X31000000Y-69000000D03*
%TD*%
D12*
%TO.P,RV1,*%
%TO.N,*%
X25700000Y-27225000D03*
X35300000Y-27225000D03*
D10*
%TO.P,RV1,1,1*%
%TO.N,Net-(R3-Pad2)*%
X28000000Y-34725000D03*
D11*
%TO.P,RV1,2,2*%
%TO.N,Net-(R4-Pad1)*%
X30500000Y-34725000D03*
%TO.P,RV1,3,3*%
%TO.N,unconnected-(RV1-Pad3)*%
X33000000Y-34725000D03*
%TD*%
D14*
%TO.P,R4,1*%
%TO.N,Net-(R4-Pad1)*%
X79190000Y-22000000D03*
%TO.P,R4,2*%
%TO.N,Net-(C2-Pad1)*%
X86810000Y-22000000D03*
%TD*%
D17*
%TO.P,J2,1,Pin_1*%
%TO.N,/Out*%
X15500000Y-67500000D03*
%TD*%
D14*
%TO.P,R11,1*%
%TO.N,Net-(C8-Pad1)*%
X69500000Y-40000000D03*
%TO.P,R11,2*%
%TO.N,GND*%
X61880000Y-40000000D03*
%TD*%
%TO.P,R19,1*%
%TO.N,/V+*%
X67350000Y-18500000D03*
%TO.P,R19,2*%
%TO.N,Net-(D4-A)*%
X54650000Y-18500000D03*
%TD*%
D18*
%TO.P,Q1,1,E*%
%TO.N,Net-(Q1-E)*%
X69120000Y-58120000D03*
D19*
%TO.P,Q1,2,B*%
%TO.N,Net-(D1-K)*%
X70390000Y-58120000D03*
%TO.P,Q1,3,C*%
%TO.N,Net-(Q1-C)*%
X71660000Y-58120000D03*
%TD*%
D20*
%TO.P,U1,1*%
%TO.N,Net-(R4-Pad1)*%
X27190000Y-41690000D03*
D14*
%TO.P,U1,2,-*%
%TO.N,Net-(U1A--)*%
X27190000Y-44230000D03*
%TO.P,U1,3,+*%
%TO.N,/Vref*%
X27190000Y-46770000D03*
%TO.P,U1,4,V-*%
%TO.N,GND*%
X27190000Y-49310000D03*
%TO.P,U1,5,+*%
%TO.N,Net-(U1B-+)*%
X34810000Y-49310000D03*
%TO.P,U1,6,-*%
%TO.N,Net-(U1B--)*%
X34810000Y-46770000D03*
%TO.P,U1,7*%
%TO.N,Net-(C10-Pad1)*%
X34810000Y-44230000D03*
%TO.P,U1,8,V+*%
%TO.N,/V+*%
X34810000Y-41690000D03*
%TD*%
%TO.P,R12,1*%
%TO.N,Net-(U1B--)*%
X52880000Y-29500000D03*
%TO.P,R12,2*%
%TO.N,Net-(C10-Pad1)*%
X60500000Y-29500000D03*
%TD*%
D21*
%TO.P,C14,1*%
%TO.N,/Vref*%
X27705113Y-54000000D03*
D14*
%TO.P,C14,2*%
%TO.N,GND*%
X25205113Y-54000000D03*
%TD*%
D17*
%TO.P,J1,1,Pin_1*%
%TO.N,/In*%
X82500000Y-68000000D03*
%TD*%
D14*
%TO.P,R8,1*%
%TO.N,Net-(C5-Pad1)*%
X85120000Y-47000000D03*
%TO.P,R8,2*%
%TO.N,Net-(Q2-C)*%
X77500000Y-47000000D03*
%TD*%
%TO.P,C3,1*%
%TO.N,Net-(D1-K)*%
X69160000Y-64120000D03*
%TO.P,C3,2*%
%TO.N,Net-(Q1-C)*%
X74160000Y-64120000D03*
%TD*%
%TO.P,C5,1*%
%TO.N,Net-(C5-Pad1)*%
X85000000Y-39000000D03*
%TO.P,C5,2*%
%TO.N,Net-(C5-Pad2)*%
X85000000Y-34000000D03*
%TD*%
%TO.P,C7,1*%
%TO.N,/Vref*%
X30000000Y-59000000D03*
%TO.P,C7,2*%
%TO.N,Net-(U1B-+)*%
X35000000Y-59000000D03*
%TD*%
%TO.P,R7,1*%
%TO.N,/V+*%
X78190000Y-27500000D03*
%TO.P,R7,2*%
%TO.N,Net-(C5-Pad1)*%
X85810000Y-27500000D03*
%TD*%
%TO.P,R10,1*%
%TO.N,Net-(C5-Pad2)*%
X81000000Y-32690000D03*
%TO.P,R10,2*%
%TO.N,Net-(U1B-+)*%
X81000000Y-40310000D03*
%TD*%
D18*
%TO.P,Q2,1,E*%
%TO.N,Net-(D1-A)*%
X70390000Y-51480000D03*
D19*
%TO.P,Q2,2,B*%
%TO.N,Net-(Q1-C)*%
X71660000Y-51480000D03*
%TO.P,Q2,3,C*%
%TO.N,Net-(Q2-C)*%
X72930000Y-51480000D03*
%TD*%
D13*
%TO.P,TP3,1,1*%
%TO.N,GND*%
X14500000Y-44500000D03*
%TD*%
D22*
%TO.P,C13,1*%
%TO.N,/V+*%
X34500000Y-63900000D03*
D14*
%TO.P,C13,2*%
%TO.N,GND*%
X34500000Y-66400000D03*
%TD*%
%TO.P,C12,1*%
%TO.N,/V+*%
X23500000Y-42500000D03*
%TO.P,C12,2*%
%TO.N,GND*%
X23500000Y-47500000D03*
%TD*%
D17*
%TO.P,J3,1,Pin_1*%
%TO.N,/Power Jack*%
X19500000Y-67500000D03*
%TD*%
D14*
%TO.P,R5,1*%
%TO.N,/V+*%
X69690000Y-18500000D03*
%TO.P,R5,2*%
%TO.N,Net-(Q1-C)*%
X77310000Y-18500000D03*
%TD*%
%TO.P,R6,1*%
%TO.N,GND*%
X48380000Y-63500000D03*
%TO.P,R6,2*%
%TO.N,Net-(Q1-E)*%
X56000000Y-63500000D03*
%TD*%
D13*
%TO.P,TP1,1,1*%
%TO.N,Net-(Q1-C)*%
X85000000Y-62000000D03*
%TD*%
D12*
%TO.P,RV2,*%
%TO.N,*%
X65700000Y-27225000D03*
X75300000Y-27225000D03*
D10*
%TO.P,RV2,1,1*%
%TO.N,Net-(U1B-+)*%
X68000000Y-34725000D03*
D11*
%TO.P,RV2,2,2*%
%TO.N,Net-(C8-Pad2)*%
X70500000Y-34725000D03*
%TO.P,RV2,3,3*%
%TO.N,Net-(U1B--)*%
X73000000Y-34725000D03*
%TD*%
D14*
%TO.P,R16,1*%
%TO.N,/Power Jack*%
X15300000Y-62500000D03*
%TO.P,R16,2*%
%TO.N,/V+*%
X28000000Y-62500000D03*
%TD*%
%TO.P,C8,1*%
%TO.N,Net-(C8-Pad1)*%
X72500000Y-40500000D03*
%TO.P,C8,2*%
%TO.N,Net-(C8-Pad2)*%
X77500000Y-40500000D03*
%TD*%
%TO.P,R1,1*%
%TO.N,/In*%
X53810000Y-59000000D03*
%TO.P,R1,2*%
%TO.N,GND*%
X46190000Y-59000000D03*
%TD*%
%TO.P,R17,1*%
%TO.N,/V+*%
X22310000Y-55500000D03*
%TO.P,R17,2*%
%TO.N,/Vref*%
X14690000Y-55500000D03*
%TD*%
%TO.P,C1,1*%
%TO.N,/In*%
X52000000Y-54000000D03*
%TO.P,C1,2*%
%TO.N,Net-(C1-Pad2)*%
X47000000Y-54000000D03*
%TD*%
%TO.P,R3,1*%
%TO.N,Net-(U1A--)*%
X18500000Y-44810000D03*
%TO.P,R3,2*%
%TO.N,Net-(R3-Pad2)*%
X18500000Y-37190000D03*
%TD*%
%TO.P,R13,1*%
%TO.N,Net-(C10-Pad2)*%
X41000000Y-43880000D03*
%TO.P,R13,2*%
%TO.N,GND*%
X41000000Y-51500000D03*
%TD*%
%TO.P,C15,1*%
%TO.N,/V+*%
X28000000Y-67500000D03*
%TO.P,C15,2*%
%TO.N,GND*%
X23000000Y-67500000D03*
%TD*%
D23*
%TO.P,C6,1*%
%TO.N,Net-(D1-A)*%
X58000000Y-57000000D03*
D14*
%TO.P,C6,2*%
%TO.N,GND*%
X58000000Y-54500000D03*
%TD*%
%TO.P,C11,1*%
%TO.N,Net-(C11-Pad1)*%
X60500000Y-48500000D03*
%TO.P,C11,2*%
%TO.N,Net-(C11-Pad2)*%
X60500000Y-43500000D03*
%TD*%
D23*
%TO.P,C2,1*%
%TO.N,Net-(C2-Pad1)*%
X77500000Y-70000000D03*
D14*
%TO.P,C2,2*%
%TO.N,Net-(D1-K)*%
X77500000Y-67500000D03*
%TD*%
%TO.P,R2,1*%
%TO.N,Net-(C1-Pad2)*%
X38310000Y-54000000D03*
%TO.P,R2,2*%
%TO.N,Net-(U1A--)*%
X30690000Y-54000000D03*
%TD*%
%TO.P,R14,1*%
%TO.N,Net-(C10-Pad2)*%
X52690000Y-34500000D03*
%TO.P,R14,2*%
%TO.N,Net-(C11-Pad1)*%
X60310000Y-34500000D03*
%TD*%
%TO.P,R15,1*%
%TO.N,Net-(C11-Pad2)*%
X65500000Y-51620000D03*
%TO.P,R15,2*%
%TO.N,GND*%
X65500000Y-44000000D03*
%TD*%
%TO.P,C10,1*%
%TO.N,Net-(C10-Pad1)*%
X43500000Y-34500000D03*
%TO.P,C10,2*%
%TO.N,Net-(C10-Pad2)*%
X48500000Y-34500000D03*
%TD*%
%TO.P,R9,1*%
%TO.N,Net-(D1-A)*%
X63500000Y-62310000D03*
%TO.P,R9,2*%
%TO.N,GND*%
X63500000Y-54690000D03*
%TD*%
D13*
%TO.P,TP2,1,1*%
%TO.N,Net-(Q2-C)*%
X85000000Y-52000000D03*
%TD*%
D14*
%TO.P,C4,1*%
%TO.N,Net-(Q1-C)*%
X70000000Y-45500000D03*
%TO.P,C4,2*%
%TO.N,Net-(Q2-C)*%
X75000000Y-45500000D03*
%TD*%
D22*
%TO.P,D2,1,K*%
%TO.N,Net-(D1-A)*%
X81160000Y-52620000D03*
D14*
%TO.P,D2,2,A*%
%TO.N,Net-(D1-K)*%
X81160000Y-60240000D03*
%TD*%
%TO.P,R18,1*%
%TO.N,/Vref*%
X14690000Y-51000000D03*
%TO.P,R18,2*%
%TO.N,GND*%
X22310000Y-51000000D03*
%TD*%
D17*
%TO.P,J4,1,Pin_1*%
%TO.N,/LED GND*%
X86000000Y-68000000D03*
%TD*%
D23*
%TO.P,D1,1,K*%
%TO.N,Net-(D1-K)*%
X77000000Y-60310000D03*
D14*
%TO.P,D1,2,A*%
%TO.N,Net-(D1-A)*%
X77000000Y-52690000D03*
%TD*%
D24*
%TO.N,Net-(Q1-C)*%
X85000000Y-62000000D03*
%TO.N,Net-(Q2-C)*%
X85000000Y-52000000D03*
%TO.N,GND*%
X14500000Y-44500000D03*
%TO.N,/Vref*%
X16000000Y-59000000D03*
%TO.N,/V+*%
X31000000Y-69000000D03*
%TD*%
M02*
