M48
; DRILL file {KiCad 9.0.6} date 2025-12-29T20:46:50-0300
; FORMAT={-:-/ absolute / metric / decimal}
; #@! TF.CreationDate,2025-12-29T20:46:50-03:00
; #@! TF.GenerationSoftware,Kicad,Pcbnew,9.0.6
; #@! TF.FileFunction,Plated,1,2,PTH
FMAT,2
METRIC
; #@! TA.AperFunction,Plated,PTH,ViaDrill
T1C0.300
; #@! TA.AperFunction,Plated,PTH,ComponentDrill
T2C0.750
; #@! TA.AperFunction,Plated,PTH,ComponentDrill
T3C0.800
; #@! TA.AperFunction,Plated,PTH,ComponentDrill
T4C0.900
; #@! TA.AperFunction,Plated,PTH,ComponentDrill
T5C1.000
; #@! TA.AperFunction,Plated,PTH,ComponentDrill
T6C1.100
%
G90
G05
T1
X14.5Y-44.5
X16.0Y-59.0
X31.0Y-69.0
X85.0Y-52.0
X85.0Y-62.0
T2
X69.12Y-58.12
X70.39Y-51.48
X70.39Y-58.12
X71.66Y-51.48
X71.66Y-58.12
X72.93Y-51.48
T3
X14.69Y-51.0
X14.69Y-55.5
X15.3Y-62.5
X15.5Y-67.5
X18.5Y-37.19
X18.5Y-44.81
X19.5Y-67.5
X22.31Y-51.0
X22.31Y-55.5
X23.0Y-67.5
X23.5Y-42.5
X23.5Y-47.5
X25.205Y-54.0
X27.19Y-41.69
X27.19Y-44.23
X27.19Y-46.77
X27.19Y-49.31
X27.705Y-54.0
X28.0Y-62.5
X28.0Y-67.5
X30.0Y-59.0
X30.69Y-54.0
X34.5Y-63.9
X34.5Y-66.4
X34.81Y-41.69
X34.81Y-44.23
X34.81Y-46.77
X34.81Y-49.31
X35.0Y-59.0
X38.31Y-54.0
X41.0Y-43.88
X41.0Y-51.5
X43.5Y-29.5
X43.5Y-34.5
X46.19Y-59.0
X47.0Y-54.0
X48.38Y-63.5
X48.5Y-29.5
X48.5Y-34.5
X48.5Y-68.5
X52.0Y-54.0
X52.69Y-34.5
X52.88Y-29.5
X53.81Y-59.0
X54.65Y-18.5
X56.0Y-63.5
X58.0Y-54.5
X58.0Y-57.0
X60.31Y-34.5
X60.5Y-29.5
X60.5Y-43.5
X60.5Y-48.5
X61.88Y-40.0
X63.5Y-54.69
X63.5Y-62.31
X65.5Y-44.0
X65.5Y-51.62
X67.35Y-18.5
X69.16Y-64.12
X69.5Y-40.0
X69.69Y-18.5
X70.0Y-45.5
X72.5Y-40.5
X74.16Y-64.12
X75.0Y-45.5
X77.0Y-52.69
X77.0Y-60.31
X77.31Y-18.5
X77.5Y-40.5
X77.5Y-47.0
X77.5Y-67.5
X77.5Y-70.0
X78.19Y-27.5
X79.19Y-22.0
X81.0Y-32.69
X81.0Y-40.31
X81.16Y-52.62
X81.16Y-60.24
X82.5Y-68.0
X85.0Y-34.0
X85.0Y-39.0
X85.12Y-47.0
X85.81Y-27.5
X86.0Y-68.0
X86.81Y-22.0
T4
X49.23Y-18.5
X51.77Y-18.5
T5
X28.0Y-34.725
X30.5Y-34.725
X33.0Y-34.725
X48.0Y-50.725
X50.5Y-50.725
X53.0Y-50.725
X68.0Y-34.725
X70.5Y-34.725
X73.0Y-34.725
T6
X41.5Y-58.92
X41.5Y-69.08
T6
G00X25.7Y-27.575
M15
G01X25.7Y-26.875
M16
G05
G00X35.3Y-27.575
M15
G01X35.3Y-26.875
M16
G05
G00X45.7Y-43.575
M15
G01X45.7Y-42.875
M16
G05
G00X55.3Y-43.575
M15
G01X55.3Y-42.875
M16
G05
G00X65.7Y-27.575
M15
G01X65.7Y-26.875
M16
G05
G00X75.3Y-27.575
M15
G01X75.3Y-26.875
M16
G05
M30
